<?xml version="1.0" encoding="UTF-8" standalone="no"?>
<!-- Created with Inkscape (http://www.inkscape.org/) -->
<svg
   xmlns:dc="http://purl.org/dc/elements/1.1/"
   xmlns:cc="http://creativecommons.org/ns#"
   xmlns:rdf="http://www.w3.org/1999/02/22-rdf-syntax-ns#"
   xmlns:svg="http://www.w3.org/2000/svg"
   xmlns="http://www.w3.org/2000/svg"
   xmlns:sodipodi="http://sodipodi.sourceforge.net/DTD/sodipodi-0.dtd"
   xmlns:inkscape="http://www.inkscape.org/namespaces/inkscape"
   width="744.09448819"
   height="1052.3622047"
   id="svg2"
   sodipodi:version="0.32"
   inkscape:version="0.46"
   sodipodi:docname="arkan8id_logo.svg"
   inkscape:output_extension="org.inkscape.output.svg.inkscape">
  <sodipodi:namedview
     id="base"
     pagecolor="#ffffff"
     bordercolor="#666666"
     borderopacity="1.0"
     gridtolerance="10000"
     guidetolerance="10"
     objecttolerance="10"
     inkscape:pageopacity="0.0"
     inkscape:pageshadow="2"
     inkscape:zoom="0.9899495"
     inkscape:cx="319.9717"
     inkscape:cy="491.72971"
     inkscape:document-units="px"
     inkscape:current-layer="layer1"
     showgrid="false"
     inkscape:window-width="1664"
     inkscape:window-height="1000"
     inkscape:window-x="0"
     inkscape:window-y="14" />
  <defs
     id="defs4">
    <inkscape:perspective
       sodipodi:type="inkscape:persp3d"
       inkscape:vp_x="0 : 526.18109 : 1"
       inkscape:vp_y="0 : 1000 : 0"
       inkscape:vp_z="744.09448 : 526.18109 : 1"
       inkscape:persp3d-origin="372.04724 : 350.78739 : 1"
       id="perspective10" />
  </defs>
  <metadata
     id="metadata7">
    <rdf:RDF>
      <cc:Work
         rdf:about="">
        <dc:format>image/svg+xml</dc:format>
        <dc:type
           rdf:resource="http://purl.org/dc/dcmitype/StillImage" />
      </cc:Work>
    </rdf:RDF>
  </metadata>
  <g
     inkscape:label="Layer 1"
     inkscape:groupmode="layer"
     id="layer1">
    <path
       style="font-size:76.78648376px;font-style:normal;font-weight:normal;fill:#000000;fill-opacity:1;stroke:none;stroke-width:1px;stroke-linecap:butt;stroke-linejoin:miter;stroke-opacity:1;font-family:Bitstream Vera Sans"
       d="M 295.92765,475.22789 C 307.4215,463.93614 314.9762,457.27636 320.04736,453.75282 C 326.4605,449.25158 333.30596,445.8168 340.98237,443.18224 C 350.10397,440.0518 360.13435,438.0616 372.03778,437.15226 C 385.52361,436.12223 399.63118,438.13343 416.63639,444.71035 C 432.74758,450.94186 446.08051,458.2843 453.83337,466.32025 C 463.33979,476.17468 466.37087,487.81711 460.63277,500.79668 C 453.956,515.89887 438.99133,527.71473 416.89756,534.22374 C 391.52875,541.69804 364.30612,539.95917 339.8322,530.96279 C 325.0266,525.32991 307.88636,514.065 292.07684,500.95907 C 263.03989,534.99376 226.55179,564.15001 195.75939,573.58456 C 175.89574,579.67089 168.06928,573.75182 171.34363,558.93038 C 173.95341,547.11564 183.51627,533.10165 197.53062,518.23279 C 208.59687,506.49176 219.80522,497.13348 231.6469,489.20315 C 242.21017,482.12902 251.38092,477.39979 260.04167,474.44077 C 273.28918,469.91481 284.55155,469.81218 295.92765,475.22789 C 295.92765,475.22789 295.92765,475.22789 295.92765,475.22789 C 295.92765,475.22789 295.92765,475.22789 295.92765,475.22789 M 307.39504,481.69739 C 320.43606,490.52856 335.67915,497.46362 351.1404,500.339 C 362.48841,502.60008 374.46943,502.00526 386.18688,498.33167 C 401.99123,493.37713 410.58384,485.30491 411.66365,475.46808 C 412.58683,467.05523 406.34852,459.46439 395.26771,453.09223 C 386.09598,447.81833 377.29222,445.47689 368.24202,445.30213 C 360.06232,445.14438 352.39443,446.38617 344.70004,449.00343 C 339.89196,450.63901 335.71645,452.72805 332.04639,455.35601 C 326.86479,459.14029 319.28679,467.09639 307.39504,481.69739 C 307.39504,481.69739 307.39504,481.69739 307.39504,481.69739 C 307.39504,481.69739 307.39504,481.69739 307.39504,481.69739 M 281.33416,490.45931 C 274.72889,485.19846 269.79821,482.77306 265.78852,482.46331 C 261.98597,482.1698 258.00331,482.75733 253.70725,484.21047 C 248.06898,486.11778 242.32013,489.15155 236.14462,493.52794 C 229.54161,498.20733 223.35036,503.97893 217.33232,511.311 C 210.48306,519.65573 206.87674,526.43208 207.36745,530.98577 C 207.9139,536.06008 212.59356,537.41667 221.41081,534.59104 C 237.20814,529.52884 259.39745,512.6198 281.33416,490.45931 C 281.33416,490.45931 281.33416,490.45931 281.33416,490.45931 C 281.33416,490.45931 281.33416,490.45931 281.33416,490.45931"
       id="text2383" />
    <path
       style="font-size:76.78648376px;font-style:normal;font-weight:normal;fill:#ff6600;fill-opacity:1;stroke:none;stroke-width:1px;stroke-linecap:butt;stroke-linejoin:miter;stroke-opacity:1;font-family:Bitstream Vera Sans"
       d="M 271.79337,468.61188 C 283.28722,457.32013 290.84192,450.66035 295.91308,447.13681 C 302.32622,442.63557 309.17168,439.20079 316.84809,436.56623 C 325.96969,433.43579 336.00007,431.44559 347.9035,430.53625 C 361.38933,429.50622 375.4969,431.51742 392.50211,438.09434 C 408.6133,444.32585 421.94623,451.66829 429.69909,459.70424 C 439.20551,469.55867 442.23659,481.2011 436.49849,494.18067 C 429.82172,509.28286 414.85705,521.09872 392.76328,527.60773 C 367.39447,535.08203 340.17184,533.34316 315.69792,524.34678 C 300.89232,518.7139 283.75208,507.44899 267.94256,494.34306 C 238.90561,528.37775 202.41751,557.534 171.62511,566.96855 C 151.76146,573.05488 143.935,567.13581 147.20935,552.31437 C 149.81913,540.49963 159.38199,526.48564 173.39634,511.61678 C 184.46259,499.87575 195.67094,490.51747 207.51262,482.58714 C 218.07589,475.51301 227.24664,470.78378 235.90739,467.82476 C 249.1549,463.2988 260.41727,463.19617 271.79337,468.61188 C 271.79337,468.61188 271.79337,468.61188 271.79337,468.61188 C 271.79337,468.61188 271.79337,468.61188 271.79337,468.61188 M 283.26076,475.08138 C 296.30178,483.91255 311.54487,490.84761 327.00612,493.72299 C 338.35413,495.98407 350.33515,495.38925 362.0526,491.71566 C 377.85695,486.76112 386.44956,478.6889 387.52937,468.85207 C 388.45255,460.43922 382.21424,452.84838 371.13343,446.47622 C 361.9617,441.20232 353.15794,438.86088 344.10774,438.68612 C 335.92804,438.52837 328.26015,439.77016 320.56576,442.38742 C 315.75768,444.023 311.58217,446.11204 307.91211,448.74 C 302.73051,452.52428 295.15251,460.48038 283.26076,475.08138 C 283.26076,475.08138 283.26076,475.08138 283.26076,475.08138 C 283.26076,475.08138 283.26076,475.08138 283.26076,475.08138 M 257.19988,483.8433 C 250.59461,478.58245 245.66393,476.15705 241.65424,475.8473 C 237.85169,475.55379 233.86903,476.14132 229.57297,477.59446 C 223.9347,479.50177 218.18585,482.53554 212.01034,486.91193 C 205.40733,491.59132 199.21608,497.36292 193.19804,504.69499 C 186.34878,513.03972 182.74246,519.81607 183.23317,524.36976 C 183.77962,529.44407 188.45928,530.80066 197.27653,527.97503 C 213.07386,522.91283 235.26317,506.00379 257.19988,483.8433 C 257.19988,483.8433 257.19988,483.8433 257.19988,483.8433 C 257.19988,483.8433 257.19988,483.8433 257.19988,483.8433"
       id="path2452" />
  </g>
</svg>
