<?xml version="1.0" encoding="UTF-8" standalone="no"?>
<!-- Created with Inkscape (http://www.inkscape.org/) -->

<svg
   xmlns:dc="http://purl.org/dc/elements/1.1/"
   xmlns:cc="http://creativecommons.org/ns#"
   xmlns:rdf="http://www.w3.org/1999/02/22-rdf-syntax-ns#"
   xmlns:svg="http://www.w3.org/2000/svg"
   xmlns="http://www.w3.org/2000/svg"
   xmlns:sodipodi="http://sodipodi.sourceforge.net/DTD/sodipodi-0.dtd"
   xmlns:inkscape="http://www.inkscape.org/namespaces/inkscape"
   id="svg3590"
   version="1.1"
   inkscape:version="0.48.2 r9819"
   width="426"
   height="471"
   sodipodi:docname="traveler.svg"
   inkscape:export-filename="/Users/nbeckman/Documents/MIA_ludem_dare/traveler.png"
   inkscape:export-xdpi="22.418798"
   inkscape:export-ydpi="22.418798">
  <metadata
     id="metadata3596">
    <rdf:RDF>
      <cc:Work
         rdf:about="">
        <dc:format>image/svg+xml</dc:format>
        <dc:type
           rdf:resource="http://purl.org/dc/dcmitype/StillImage" />
        <dc:title></dc:title>
      </cc:Work>
    </rdf:RDF>
  </metadata>
  <defs
     id="defs3594" />
  <sodipodi:namedview
     pagecolor="#ffffff"
     bordercolor="#666666"
     borderopacity="1"
     objecttolerance="10"
     gridtolerance="10"
     guidetolerance="10"
     inkscape:pageopacity="0"
     inkscape:pageshadow="2"
     inkscape:window-width="1385"
     inkscape:window-height="906"
     id="namedview3592"
     showgrid="false"
     inkscape:zoom="1.1575153"
     inkscape:cx="213"
     inkscape:cy="235.5"
     inkscape:window-x="0"
     inkscape:window-y="0"
     inkscape:window-maximized="0"
     inkscape:current-layer="svg3590" />
  <path
     style="fill:#000000"
     d="M 48.075253,430.72785 C 42.748951,429.24982 40.622265,426.02484 39.68199,418 c -0.354441,-3.025 -0.890365,-6.85 -1.190942,-8.5 -1.229963,-6.7518 -1.696562,-22.47171 -0.747791,-25.19335 1.044223,-2.99546 -0.68981,-19.79312 -2.314655,-22.42217 -0.444844,-0.71978 -0.711445,-2.75438 -0.592447,-4.52134 0.118999,-1.76696 -0.245455,-3.49807 -0.809897,-3.84691 C 33.461816,353.16738 33,351.98036 33,350.8784 33,349.77644 32.119229,346.09049 31.042732,342.68742 27.392113,331.14689 24.188911,315.95586 24.150219,310 c -0.0246,-3.78626 0.643924,-5.37184 4.21493,-9.99683 2.334291,-3.02326 5.119569,-5.65568 6.189508,-5.84983 1.069939,-0.19415 2.845343,-1.18083 3.945343,-2.19262 1.1,-1.01179 2.3375,-1.86687 2.75,-1.90017 0.4125,-0.0333 0.8625,-0.10903 1,-0.16829 0.965946,-0.41626 15.928311,-3.02803 18.75,-3.27291 1.925,-0.16707 4.85,-1.04699 6.5,-1.95539 1.65,-0.9084 3.985942,-1.65441 5.190983,-1.6578 C 73.896024,283.00277 75.160081,282.55 75.5,282 c 1.192434,-1.9294 8.113774,-1.0727 11.857169,1.46763 11.186187,7.59116 11.50224,8.04079 14.568841,20.7263 2.9633,12.25819 2.58797,22.25265 -0.81049,21.58222 -1.252651,-0.24711 -1.622902,-1.57929 -1.648385,-5.93093 -0.02115,-3.61087 -0.786411,-7.16934 -2.145968,-9.97872 C 96.15896,307.46492 94.420688,303.7 93.458338,301.5 91.298062,296.56145 84.361753,290.08413 81,289.86606 c -1.375,-0.0892 -3.4,-0.20805 -4.5,-0.26412 -1.1,-0.0561 -2.992711,0.49935 -4.206024,1.23426 -1.213313,0.7349 -2.601562,1.09174 -3.084998,0.79296 -0.483435,-0.29878 -2.415725,-0.14271 -4.293976,0.34684 -1.878251,0.48954 -6.115002,1.41888 -9.415002,2.06519 -3.3,0.64632 -8.475,2.10251 -11.5,3.23597 -5.606892,2.10089 -11.920256,7.63243 -12.096534,10.59853 -0.314699,5.29524 0.109872,11.28904 0.909241,12.83604 0.508223,0.98355 1.241563,3.58827 1.629644,5.78827 0.388081,2.2 1.318898,4.9533 2.068483,6.11845 0.749584,1.16515 1.323257,3.51206 1.274828,5.21536 -0.04843,1.7033 0.408931,3.69573 1.016354,4.42763 0.607424,0.73191 1.107095,2.20999 1.11038,3.28465 0.0033,1.07465 0.739664,4.87891 1.636398,8.45391 2.24819,8.96284 3.399571,18.94094 3.346331,29 -0.02474,4.675 -0.05626,11.2 -0.07003,14.5 -0.03845,9.2118 1.260636,18.32626 2.793354,19.5983 C 48.3783,417.72892 49,419.03054 49,419.99078 c 0,1.26928 1.160193,1.9513 4.25,2.49835 8.344888,1.47748 14.720401,0.548 18.148604,-2.64586 C 72.486789,418.82947 73.898133,418 74.534923,418 c 1.049991,0 5.664713,-1.9101 9.443601,-3.90885 0.813189,-0.43012 1.780751,-2.25975 2.150138,-4.06585 0.369388,-1.80611 1.160806,-3.58617 1.758707,-3.95569 0.708656,-0.43797 0.791926,-1.70105 0.2392,-3.62829 -0.466342,-1.62604 -0.922793,-9.70303 -1.014336,-17.94888 C 86.915363,366.75927 86.23965,360.44378 84.373484,358.895 83.618068,358.26806 83,357.19063 83,356.5007 c 0,-1.3453 -9.828159,-6.00587 -10.740718,-5.09332 -0.92968,0.92969 -10.242808,-4.80345 -10.840014,-6.67308 -1.117347,-3.49799 1.395558,-8.14572 5.339148,-9.87499 7.895822,-3.46232 11.99958,-4.13836 22.15307,-3.64943 9.134883,0.43987 10.104327,0.31566 10.637096,-1.36295 C 100.15208,327.94547 104,327.21336 104,329 c 0,1.31684 4.69974,1.29484 5.51595,-0.0258 0.38168,-0.61757 1.82454,-0.024 3.62552,1.4914 6.55166,5.51286 28.77827,8.66847 45.85853,6.51075 4.125,-0.52111 11.55,-1.14625 16.5,-1.38921 10.01863,-0.49174 25.5,-3.3507 25.5,-4.70912 0,-0.4829 1.575,-0.87801 3.5,-0.87801 1.925,0 3.5,-0.50248 3.5,-1.11663 0,-0.61415 0.84077,-0.89677 1.86838,-0.62804 1.0276,0.26872 5.6401,-0.33111 10.25,-1.33296 4.60989,-1.00186 10.35626,-1.84424 12.76971,-1.87196 l 4.3881,-0.0504 -0.76625,-6.75 c -0.42144,-3.7125 -0.90342,-9.84734 -1.07107,-13.63297 -0.16765,-3.78564 -0.76044,-7.3386 -1.3173,-7.89546 -0.55687,-0.55687 -3.33069,-1.82887 -6.16404,-2.82667 -2.83336,-0.9978 -7.02148,-3.51985 -9.30695,-5.60454 -6.34677,-5.78924 -14.14263,-15.38643 -15.66969,-19.29036 -0.75298,-1.925 -2.63172,-5.96259 -4.17497,-8.97243 -1.54326,-3.00985 -2.80592,-5.89 -2.80592,-6.40034 0,-0.51035 -1.13333,-3.24435 -2.51851,-6.07556 -4.61301,-9.42866 -5.60264,-18.75837 -2.64554,-24.94084 1.08143,-2.26097 2.69599,-5.68585 3.58792,-7.61085 2.68244,-5.78937 10.05855,-15.55971 15.033,-19.91259 1.62628,-1.42308 4.84152,-4.45459 7.14499,-6.73669 2.30346,-2.28211 5.14441,-4.4528 6.31323,-4.82377 2.05245,-0.65142 2.10313,-1.0567 1.48216,-11.85072 -0.35363,-6.14693 -0.59921,-11.73873 -0.54575,-12.42623 0.20753,-2.66843 0.20142,-11.3418 -0.0178,-25.25 -0.12725,-8.07358 0.29234,-17.15921 0.94671,-20.5 0.64639,-3.3 1.3789,-7.575 1.62779,-9.5 0.2489,-1.925 0.92288,-5.525 1.49773,-8 0.57485,-2.475 1.06281,-6.3 1.08437,-8.5 0.0216,-2.2 0.69709,-5.125 1.50119,-6.5 0.8041,-1.375 2.59179,-4.8625 3.97265,-7.75 1.38085,-2.8875 2.91623,-5.25 3.41196,-5.25 0.49572,0 1.19285,-1.554019 1.54918,-3.453376 0.42211,-2.250042 1.96669,-4.60209 4.43269,-6.75 2.08166,-1.813143 5.17266,-5.321624 6.86889,-7.796624 1.69623,-2.475 3.97155,-5.434594 5.05626,-6.576875 1.08472,-1.142281 2.29668,-3.099205 2.69326,-4.34872 2.01766,-6.357084 6.69864,-7.338919 34.4235,-7.220333 10.11993,0.04329 18.89493,-0.234402 19.5,-0.617082 2.00984,-1.271145 16.03075,-1.33586 20.60012,-0.09508 2.475,0.672066 5.85,2.042403 7.5,3.045193 1.65,1.002791 5.11907,2.875528 7.70904,4.161639 5.90723,2.933374 7.79096,4.485626 7.79096,6.420001 0,0.838117 2.025,3.688739 4.5,6.334714 2.475,2.645975 4.5,5.534221 4.5,6.418324 0,0.884102 0.85306,3.715881 1.89568,6.292841 2.94019,7.267013 5.33059,16.010257 4.66959,17.079765 -0.32884,0.532081 -0.19986,1.213419 0.28663,1.514085 0.48649,0.300666 0.94473,5.84426 1.01832,12.319098 0.40553,35.68248 1.24365,47.82367 4.16066,60.27243 0.57995,2.475 1.29143,6.75 1.58107,9.5 0.28965,2.75 1.01915,6.00813 1.62112,7.24028 1.30774,2.67679 -0.87427,5.70187 -4.82869,6.69436 -2.17166,0.54506 -2.31709,0.86609 -1.28647,2.83994 0.63908,1.22398 3.23649,4.32514 5.77203,6.89146 9.84155,9.96105 12.0201,12.52127 15.25902,17.93229 3.33535,5.57213 3.35027,5.65406 3.18706,17.5 -0.0902,6.54592 -0.3902,13.02667 -0.66667,14.40167 -0.27648,1.375 -0.54018,2.76035 -0.58602,3.07856 C 396.81492,242.94206 390.5794,251 389.40576,251 388.63259,251 388,251.45 388,252 c 0,0.55 -0.57895,1 -1.28655,1 C 385.12314,253 378,262.37987 378,264.47403 378,265.31331 377.55,266 377,266 c -0.55,0 -1,0.88875 -1,1.975 0,1.64719 0.48263,1.87847 2.90779,1.39344 4.38914,-0.87783 5.2913,1.87051 6.6083,20.13156 0.238,3.3 0.64101,7.575 0.89559,9.5 0.25457,1.925 0.70051,8.18692 0.99097,13.91538 0.29046,5.72846 0.99369,10.88096 1.56273,11.45 0.56904,0.56904 1.03462,2.5492 1.03462,4.40036 0,1.85116 0.42424,4.15845 0.94276,5.12731 1.62798,3.04191 1.71157,37.92821 0.10532,43.95582 -0.53513,2.00812 -1.24244,5.78863 -1.5718,8.40113 -0.3864,3.06503 -1.08503,4.75 -1.96946,4.75 -0.75385,0 -2.40331,1.4625 -3.66547,3.25 -1.26215,1.7875 -3.58159,4.67567 -5.1543,6.41817 -1.57271,1.74249 -3.60818,4.66749 -4.52326,6.5 -1.62298,3.25011 -1.88452,3.35905 -10.66379,4.44154 -4.95,0.61034 -9.32712,0.9277 -9.72693,0.70525 -0.39981,-0.22246 -2.5083,0.0752 -4.68555,0.66147 -6.14086,1.65357 -21.13064,2.66703 -52.08752,3.52166 -9.075,0.25053 -16.95,0.50157 -17.5,0.55786 -0.55,0.0563 -3.7,-0.0825 -7,-0.30834 -6.56117,-0.4491 -12.31913,-2.88802 -13.10256,-5.5499 -0.27482,-0.93374 -1.15167,-2.97168 -1.94855,-4.52875 C 256.652,405.11189 256,403.27783 256,402.59327 c 0,-0.68455 -1.08254,-2.26164 -2.40565,-3.50463 -1.81264,-1.70289 -2.8603,-2.03004 -4.25,-1.32717 -1.01439,0.51306 -4.31935,0.80786 -7.34435,0.65513 -3.025,-0.15274 -13.375,-0.27145 -23,-0.2638 -28.39035,0.0225 -31.55468,-0.21597 -39,-2.93974 -5.37395,-1.96599 -10.04779,-3.00997 -16.89065,-3.77281 -1.86486,-0.20789 -4.78986,-0.79606 -6.5,-1.30704 -4.27293,-1.27672 -23.25136,-1.40228 -27.02745,-0.17881 -1.69505,0.54921 -4.6569,1.21496 -6.5819,1.47945 -1.925,0.26449 -5.975,1.21799 -9,2.11888 -3.025,0.90089 -6.69918,1.86552 -8.16485,2.14363 -3.50097,0.66429 -10.228624,6.83588 -9.505638,8.71995 1.822455,4.74924 1.734058,8.14807 -0.267672,10.29188 C 94.927828,415.92269 94,418.02753 94,419.38561 c 0,1.47648 -1.059339,3.30251 -2.634859,4.54181 -3.145593,2.47432 -5.208372,2.64469 -6.032061,0.49819 -0.682896,-1.7796 -4.757004,-1.20512 -7.33308,1.03402 -0.825,0.7171 -2.625,1.63526 -4,2.04037 -1.375,0.40511 -3.293017,1.43307 -4.26226,2.28436 -2.3016,2.02151 -15.678185,2.60411 -21.662487,0.94349 z M 287.53957,408.93598 c 0.32216,-0.52128 1.33569,-0.58211 2.27112,-0.13632 1.90586,0.90827 8.359,0.83153 9.89484,-0.11767 0.55495,-0.34298 3.43574,-0.24426 6.40174,0.21939 2.966,0.46364 6.96773,0.68266 8.89273,0.48671 4.11426,-0.41879 16.77434,-1.24613 26.05154,-1.70248 3.60335,-0.17725 7.09949,-0.66092 7.7692,-1.07482 0.66972,-0.41391 4.69652,-0.96866 8.94846,-1.23278 C 365.16149,404.91882 370,403.16081 370,400.93411 370,399.35616 379.1018,390 380.63684,390 381.38658,390 382,389.19 382,388.2 c 0,-0.99 0.53544,-2.33544 1.18988,-2.98988 1.17233,-1.17233 1.48027,-2.22783 2.11675,-7.25535 0.17722,-1.39987 0.65695,-3.08682 1.06606,-3.74878 1.01634,-1.64447 1.14357,-36.56165 0.13914,-38.18685 -0.44261,-0.71616 -0.95776,-3.37595 -1.14477,-5.91063 -0.187,-2.53468 -0.78115,-7.30851 -1.32033,-10.60851 -0.53918,-3.3 -1.37881,-10.5 -1.86585,-16 -0.58859,-6.64686 -1.77333,-12.31259 -3.5332,-16.8968 C 377.19146,282.80996 376,278.95847 376,278.04433 c 0,-0.91414 -0.5625,-2.42518 -1.25,-3.35786 -1.13417,-1.53866 -1.66699,-1.31731 -5.75,2.38867 -2.475,2.24646 -6.0947,5.12062 -8.04379,6.38703 -1.94908,1.26641 -4.64908,3.72808 -6,5.47038 -1.35091,1.74229 -4.25621,4.07367 -6.45621,5.18083 -2.2,1.10716 -5.125,2.65295 -6.5,3.43508 -1.375,0.78213 -4.0975,1.42869 -6.05,1.4368 -1.9525,0.008 -3.9775,0.42111 -4.5,0.91779 -0.5225,0.49667 -2.975,1.13061 -5.45,1.40875 -6.83673,0.7683 -19.57627,2.6745 -28.5,4.26442 -11.07472,1.97315 -29.24789,1.89513 -33.33363,-0.14311 -1.72749,-0.86179 -3.51549,-1.33538 -3.97332,-1.05242 -0.45783,0.28295 -3.40519,-0.28157 -6.5497,-1.2545 -3.1445,-0.97292 -7.11454,-1.56388 -8.82231,-1.31323 l -3.10504,0.45572 0.60445,9.20178 c 0.33244,5.06098 1.07134,10.42982 1.64199,11.93076 0.57066,1.50094 1.0483,5.51218 1.06142,8.91388 0.0131,3.40169 0.49706,7.9849 1.07542,10.1849 1.6598,6.31366 2.89061,12.33559 4.39434,21.5 1.35453,8.25517 3.61273,18.90982 5.08667,24 0.39816,1.375 1.55547,3.69447 2.57181,5.15437 1.01635,1.4599 1.8479,2.95027 1.8479,3.31193 0,0.36165 1.15531,3.09967 2.56735,6.08449 2.04223,4.31691 3.21833,5.61062 5.75,6.325 4.25607,1.20095 18.48964,1.24552 19.22222,0.0602 z m -69.81749,-18.36919 23.61801,-0.25087 2.86791,-5.36737 c 2.6407,-4.94214 2.78568,-5.7508 1.82995,-10.20718 C 245.46708,372.07947 245,367.92526 245,365.5098 c 0,-2.41547 -0.35167,-4.60911 -0.7815,-4.87476 -0.42982,-0.26565 -0.88386,-1.82637 -1.00897,-3.46829 -0.12511,-1.64191 -1.11653,-6.51362 -2.20315,-10.82602 -1.08662,-4.3124 -1.98258,-8.8374 -1.99103,-10.05555 -0.024,-3.46855 -3.25302,-4.50043 -12.34789,-3.94599 -12.37395,0.75433 -19.00677,1.78999 -20.67219,3.22778 -0.8276,0.71449 -3.9776,1.59282 -7,1.95185 -3.0224,0.35903 -7.52027,1.25235 -9.99527,1.98514 -4.40816,1.30516 -10.44475,2.00059 -26.5,3.05286 -4.4,0.28837 -10.025,0.9173 -12.5,1.39762 -6.33767,1.22993 -12.0313,1.07479 -14.97853,-0.40813 -1.38681,-0.69778 -5.8729,-1.56756 -9.9691,-1.93285 -4.0962,-0.36529 -8.69089,-1.28438 -10.21043,-2.04242 -1.98692,-0.99121 -3.82703,-1.1312 -6.55237,-0.49851 -2.08426,0.48387 -4.85085,0.89049 -6.14798,0.90361 -2.483572,0.0251 -2.472438,0.17862 -0.54232,-7.47614 0.44364,-1.75947 0.34773,-1.81215 -0.79749,-0.43803 -1.973172,2.36756 -6.631098,4.14742 -10.80178,4.12753 -4.810872,-0.023 -11,0.93988 -11,1.71126 0,0.42801 1.134035,1.29491 2.520078,1.92643 1.386043,0.63153 2.949905,2.27876 3.475249,3.66052 0.525344,1.38176 1.689454,2.51229 2.586911,2.51229 0.958998,0 1.418162,-0.55657 1.113705,-1.34998 -0.398814,-1.03929 0.669723,-1.30732 4.643012,-1.16465 8.646665,0.31049 9.623485,1.45245 8.035245,9.39364 -0.48829,2.44143 -1.31232,3.30706 -3.750001,3.93931 -2.490225,0.64587 -3.18653,1.40602 -3.431364,3.74599 -0.55664,5.32 -1.323135,13.86702 -1.618923,18.05225 -0.160014,2.26411 -0.568993,4.56646 -0.908842,5.11635 -1.064361,1.72217 5.41859,5.93259 9.83493,6.3874 1.1,0.11328 3.8,-0.16988 6,-0.62924 2.2,-0.45936 4.68291,-0.89157 5.51758,-0.96047 0.83467,-0.0689 2.07339,-0.46879 2.75271,-0.88863 0.67932,-0.41984 3.3714,-1.15416 5.98242,-1.63182 2.61101,-0.47766 6.77229,-1.38168 9.24729,-2.00894 10.69187,-2.70971 13.03613,-2.76656 22.5,-0.54572 3.85,0.90347 11.5,2.05802 17,2.56568 6.58035,0.60738 12.03707,1.76392 15.95695,3.38204 3.27633,1.35246 6.33724,2.22399 6.80203,1.93673 0.4648,-0.28726 11.47319,-0.63518 24.4631,-0.77315 z M 296,299.32139 c 18.32506,-2.07477 23.87355,-2.92422 30,-4.5929 3.025,-0.82392 7.6007,-1.79695 10.16823,-2.16228 2.56753,-0.36533 5.21013,-1.31718 5.87245,-2.11522 0.66231,-0.79804 1.94893,-1.45099 2.85914,-1.45099 1.63703,0 6.51991,-3.68753 12.57952,-9.5 1.72015,-1.65 4.341,-3.63854 5.82411,-4.41898 1.4831,-0.78044 2.69984,-1.90544 2.70387,-2.5 0.009,-1.3272 12.89115,-19.94937 14.1239,-20.4172 2.13275,-0.80937 9.54379,-7.66498 11.36878,-10.51673 1.73739,-2.71487 2,-4.83364 2,-16.13616 0,-14.78304 -0.58183,-16.36079 -9.84321,-26.69192 -11.85902,-13.22883 -14.94399,-15.81797 -18.84777,-15.8185 -3.70394,-5.1e-4 -5.72506,-1.31633 -3.82533,-2.49043 2.0332,-1.25658 1.0311,-4.54683 -1.73369,-5.69232 -1.5125,-0.62664 -5.08463,-2.192 -7.93807,-3.47856 -2.85345,-1.28656 -5.81595,-2.3392 -6.58334,-2.3392 -0.76739,0 -1.69272,-0.29746 -2.05628,-0.66102 -0.36356,-0.36356 -1.90106,-0.73906 -3.41666,-0.83444 -18.57897,-1.16917 -26.86778,-1.81304 -27.41538,-2.12961 -0.36285,-0.20976 -2.83785,0.0492 -5.5,0.57547 -2.66215,0.52626 -9.34027,1.70882 -14.84027,2.62791 -10.33389,1.72685 -21.5069,4.69935 -25,6.65107 -1.8739,1.04702 -5.96203,2.13439 -13,3.45778 -1.65,0.31026 -3.45,0.90221 -4,1.31546 -0.55,0.41324 -4.11784,1.28386 -7.92852,1.93472 C 233.2774,183.35395 231,184.43946 231,186.97617 c 0,2.40793 -1.82779,3.59604 -3.28713,2.1367 -0.61208,-0.61208 -1.58537,-1.11265 -2.16287,-1.11239 -1.59261,7.4e-4 -19.09072,16.87334 -18.77142,18.1004 0.32486,1.24846 -3.39097,7.5367 -5.10725,8.64293 -0.64526,0.41591 -2.19537,2.85067 -3.44468,5.41059 -2.89637,5.93486 -3.38643,15.04312 -1.05378,19.58553 0.91509,1.78197 1.96017,4.58931 2.3224,6.23854 0.36223,1.64923 1.07398,3.25531 1.58167,3.56908 0.50768,0.31377 0.92306,1.38793 0.92306,2.38704 0,2.85104 4.85654,13.10929 8.55202,18.06405 7.08783,9.5031 15.25738,16.34428 21.47525,17.98339 2.46,0.64849 5.96095,2.04282 7.77989,3.09852 1.81894,1.0557 4.12634,1.91945 5.12756,1.91945 1.00121,0 2.33999,0.62608 2.97506,1.39129 0.63506,0.76521 3.27766,1.70962 5.87244,2.09869 2.59478,0.38908 5.47284,1.11147 6.3957,1.60532 1.93736,1.03675 13.45655,2.6019 19.32208,2.62535 2.2,0.009 9.625,-0.62087 16.5,-1.39926 z M 236.37779,177.04646 c 1.37939,-0.52444 4.67119,-1.20733 7.3151,-1.51753 8.4385,-0.99004 11.7337,-1.66438 14.80711,-3.03014 1.65,-0.73323 4.69247,-1.64642 6.76105,-2.02933 2.06857,-0.3829 4.00763,-1.09517 4.30901,-1.58282 0.30139,-0.48765 1.57142,-0.88664 2.82229,-0.88664 1.25087,0 2.61151,-0.3372 3.02364,-0.74933 2.90482,-2.90481 27.61931,-6.19192 45.43304,-6.04275 21.96522,0.18395 33.36983,3.37603 42.92592,12.01472 4.70257,4.25112 6.68527,4.14921 5.7095,-0.29344 -0.34795,-1.58422 -0.29796,-3.42193 0.11109,-4.08379 0.8454,-1.36788 0.8316,-6.60365 -0.0404,-15.34541 -1.8499,-18.54429 -2.7726,-32.22847 -2.49484,-37 0.34385,-5.90682 0.30209,-6.79527 -1.01058,-21.5 C 364.03667,72.449965 362.75684,67.919909 355.22922,56.700183 350.92559,50.285719 340.5159,41 337.62866,41 c -0.53415,0 -1.73248,-0.688969 -2.66296,-1.531042 -3.33711,-3.020047 -13.88695,-3.791613 -29.4657,-2.154985 -6.6,0.693364 -17.4,1.160641 -24,1.038394 -8.68415,-0.16085 -12.57495,0.149961 -14.08072,1.124818 C 264.00201,41.689575 255,51.119062 255,52.486224 c 0,0.697887 -0.675,1.829087 -1.5,2.513776 -0.825,0.684689 -1.5,1.665156 -1.5,2.178816 0,0.513659 -1.2873,2.146059 -2.86067,3.627555 -1.57336,1.481496 -4.55501,5.819917 -6.62587,9.640935 -2.07087,3.821018 -4.36589,7.547984 -5.10005,8.282146 -1.4136,1.413598 -3.00682,8.010468 -2.1432,8.874092 0.28066,0.280657 -0.54614,3.422854 -1.83734,6.982659 -1.29119,3.559804 -2.11592,7.076167 -1.83274,7.814147 0.28319,0.73797 -0.16223,2.0189 -0.98983,2.84649 -0.82759,0.8276 -1.5313,2.34812 -1.5638,3.37894 -0.0325,1.03082 -0.2826,9.97422 -0.5558,19.87422 -0.27319,9.9 -0.63287,20.925 -0.79929,24.5 -0.3754,8.06423 0.84126,20.25827 2.29167,22.96838 1.20555,2.2526 2.66039,2.49787 6.39471,1.07808 z"
     id="path3600"
     inkscape:connector-curvature="0" />
  <path
     style="fill:#ffccaa;fill-opacity:1;stroke:#ffffff;stroke-width:1.98701465;stroke-miterlimit:4;stroke-opacity:1;stroke-dasharray:none"
     d="m 268.55002,299.42608 c -4.83375,-0.72171 -16.39519,-3.8529 -20.51809,-5.55692 -2.25699,-0.93282 -6.14462,-2.52735 -8.63919,-3.54339 -12.54451,-5.10937 -15.80196,-7.09166 -21.81397,-13.27461 -6.85823,-7.05323 -11.26806,-13.91807 -13.83987,-21.54467 -0.97064,-2.87841 -2.06762,-5.7202 -2.43773,-6.3151 -0.37012,-0.59489 -1.62142,-3.87029 -2.78068,-7.27865 -3.74836,-11.02065 -2.57989,-18.42779 4.36421,-27.66548 2.14229,-2.84989 3.89508,-5.76767 3.89508,-6.48397 0,-1.4113 10.54135,-12.67099 15.72045,-16.79172 2.81337,-2.23844 3.41109,-2.40811 5.02015,-1.42499 1.57717,0.96364 1.99628,0.88705 3.0698,-0.56098 0.6838,-0.92234 1.24326,-2.14423 1.24326,-2.71531 0,-1.39573 0.78191,-1.66014 17.71035,-5.98917 8.07765,-2.06566 17.40798,-4.72819 20.73407,-5.91674 6.3597,-2.27258 29.25478,-7.15765 37.6669,-8.03689 7.10012,-0.74211 29.59352,1.23477 36.25049,3.18595 7.44127,2.18107 14.83431,5.48546 16.34479,7.30546 0.9949,1.19879 1.01295,1.7716 0.10178,3.23062 -1.34689,2.1567 -0.52587,2.84017 4.34788,3.61952 3.8316,0.61269 12.05708,7.85236 20.12287,17.71116 7.158,8.74922 7.68028,10.45083 7.65209,24.93116 -0.0232,11.96287 -0.0922,12.42132 -2.35694,15.68941 -1.28313,1.85154 -4.59029,5.13991 -7.34926,7.30748 -3.60721,2.83399 -6.92212,6.79914 -11.80095,14.11581 -3.73157,5.59614 -7.28951,10.49276 -7.90657,10.8814 -0.61705,0.38862 -4.12217,3.23377 -7.78916,6.32253 -8.79243,7.40598 -14.69005,10.30083 -26.37078,12.94409 -18.66161,4.22297 -50.7913,7.32463 -60.64098,5.854 l 0,0 z"
     id="path3914"
     inkscape:connector-curvature="0" />
  <path
     style="fill:#ffccaa;fill-opacity:1;stroke:#ffffff;stroke-width:1.98701465;stroke-miterlimit:4;stroke-opacity:1;stroke-dasharray:none"
     d="m 186.04571,388.90053 c -2.61335,-0.97421 -9.99986,-2.51058 -16.41447,-3.41417 -6.4146,-0.90358 -15.10754,-2.24598 -19.31764,-2.98312 -7.26281,-1.27162 -8.10325,-1.25011 -16.41447,0.41998 -4.81786,0.96812 -12.25861,2.67911 -16.53501,3.8022 -12.11049,3.1805 -15.34691,3.4332 -19.633051,1.53292 -5.215928,-2.3125 -5.80187,-3.29668 -4.999473,-8.3974 0.373734,-2.37578 0.962205,-7.95496 1.307714,-12.39818 0.626479,-8.05649 0.636385,-8.08341 3.622682,-9.84537 4.867348,-2.87181 6.415068,-10.50044 2.663468,-13.12816 -2.606759,-1.82585 -11.902643,-1.88528 -11.902643,-0.0761 0,1.79288 -2.136623,0.76395 -3.429308,-1.65146 -0.594261,-1.11038 -2.024246,-2.52397 -3.177745,-3.14131 -2.843898,-1.522 -1.402313,-2.1603 6.591224,-2.91841 3.554961,-0.33716 7.777078,-1.16183 9.382484,-1.83261 l 2.918918,-1.21961 -0.55382,2.95211 c -0.304599,1.62366 -0.190701,3.17652 0.25311,3.45081 0.4438,0.27429 3.13395,0.18047 5.97809,-0.2085 3.4689,-0.4744 6.32405,-0.36679 8.67339,0.32688 1.92621,0.56875 5.75979,1.30017 8.51906,1.62538 2.75927,0.32521 7.27053,1.20666 10.02502,1.95879 5.45428,1.4893 8.91823,1.38274 33.86821,-1.04183 15.54975,-1.51109 35.77992,-5.08771 39.41778,-6.96892 2.61693,-1.35327 15.29183,-2.92821 23.75854,-2.95215 3.87137,-0.011 5.61228,0.36706 6.47939,1.40691 1.63083,1.95572 6.62654,25.46474 7.84678,36.92576 l 1.00149,9.40633 -2.42535,4.63236 -2.42535,4.63235 -6.58946,0.002 c -3.62421,0.001 -14.94788,0.19822 -25.16373,0.4379 -17.22167,0.40404 -18.92029,0.30679 -23.32583,-1.3355 l 0,-4e-5 z"
     id="path3916"
     inkscape:connector-curvature="0" />
  <path
     style="fill:#002b00;fill-opacity:1;stroke:#ffffff;stroke-width:1.98701465;stroke-miterlimit:4;stroke-opacity:1;stroke-dasharray:none"
     d="m 272.0057,408.93072 c -2.37578,-0.32517 -4.80185,-0.89652 -5.39128,-1.26968 -2.32224,-1.47015 -10.59609,-19.8352 -12.26584,-27.2259 -3.46698,-15.34557 -8.69243,-43.40323 -8.69243,-46.67338 0,-1.86192 -0.55656,-6.44118 -1.23682,-10.17613 -0.68025,-3.73495 -1.49824,-9.99811 -1.81775,-13.91815 l -0.58094,-7.12733 3.41473,0 c 1.87811,0 7.65283,0.92159 12.83273,2.04798 13.06213,2.84041 18.79731,3.26205 30.44115,2.23794 9.22092,-0.811 34.36534,-4.61313 45.93061,-6.94525 7.25493,-1.46295 15.26027,-5.58842 20.63336,-10.6332 7.48653,-7.0291 17.35778,-14.54593 18.51754,-14.10089 0.57436,0.2204 2.3412,4.82184 3.92633,10.22542 6.61523,22.55088 10.99106,76.20824 7.47542,91.66533 -1.8501,8.13427 -3.29155,10.71519 -8.70164,15.5803 -2.51839,2.2647 -5.40065,5.44728 -6.40502,7.07238 -2.13806,3.45945 -4.37501,4.30221 -15.14389,5.70534 -4.2764,0.5572 -10.49662,1.36749 -13.82271,1.80065 -3.32609,0.43316 -16.93282,0.95099 -30.23718,1.15071 -13.30436,0.19973 -26.52232,0.54583 -29.37326,0.76912 -2.85093,0.22328 -7.12733,0.13992 -9.50311,-0.18526 l 0,0 z"
     id="path3918"
     inkscape:connector-curvature="0" />
  <path
     style="fill:#002b00;fill-opacity:1;stroke:#ffffff;stroke-width:1.98701465;stroke-miterlimit:4;stroke-opacity:1;stroke-dasharray:none"
     d="m 229.95662,174.03213 c -1.4683,-4.1476 -1.32805,-63.97792 0.15649,-66.7518 1.31845,-2.46355 4.35978,-14.12444 5.29142,-20.288061 0.60707,-4.016294 1.96738,-7.128847 6.04108,-13.822711 2.89167,-4.751568 6.01871,-9.468195 6.94897,-10.481393 0.93026,-1.013199 3.93776,-5.095218 6.68333,-9.071154 2.74557,-3.975937 6.93868,-8.821667 9.31802,-10.768291 l 4.32608,-3.539315 18.05631,-0.780282 c 9.93097,-0.429155 23.88777,-0.780282 31.01511,-0.780282 12.91596,0 12.97638,0.0092 18.27954,2.780423 13.05262,6.82081 24.43679,21.919265 27.1585,36.019454 1.50575,7.800722 3.33864,28.332702 3.36165,37.656992 0.0124,4.98914 0.75072,18.40149 1.64091,29.80522 1.55092,19.8682 1.56595,31.53306 0.0406,31.53306 -0.39288,0 -3.22962,-1.90381 -6.30386,-4.2307 -10.64383,-8.05629 -18.74823,-9.94074 -42.88146,-9.97086 -19.05931,-0.0239 -34.89026,1.73566 -42.33206,4.70481 -6.78048,2.70531 -23.59378,7.64231 -28.07738,8.24458 -2.37578,0.31912 -6.65218,1.11443 -9.50311,1.76734 -7.50797,1.71947 -7.92639,1.62748 -9.22014,-2.02703 l 0,0 z"
     id="path3920"
     inkscape:connector-curvature="0" />
  <path
     style="fill:none;stroke:#000000;stroke-width:1px;stroke-linecap:butt;stroke-linejoin:miter;stroke-opacity:1"
     d="m 101.94249,329.31721 c -4.914819,-0.69839 -0.0805,-3.61677 -0.86392,-5.18351 -0.18213,-0.36426 -0.68179,-0.49966 -0.86392,-0.86392 -0.12878,-0.25757 0,-0.57595 0,-0.86392 0,-0.57595 0,-1.1519 0,-1.72784"
     id="path3924"
     inkscape:connector-curvature="0" />
  <path
     style="fill:#ffffff;fill-opacity:1;stroke:#ffffff;stroke-width:1.98701465;stroke-miterlimit:4;stroke-opacity:1;stroke-dasharray:none"
     d="m 52.570161,421.70217 c -2.551691,-0.75509 -3.952081,-2.73233 -5.771107,-8.14837 -0.478757,-1.42547 -1.199004,-12.894 -1.600549,-25.48563 -0.763595,-23.9447 -0.590412,-22.66152 -6.820969,-50.53928 -0.42478,-1.90063 -1.835933,-6.56579 -3.135895,-10.36704 -3.249025,-9.50054 -3.500103,-19.99456 -0.553598,-23.13814 5.420683,-5.78325 23.434415,-11.40074 42.764662,-13.33593 3.47718,-0.34811 4.680413,-0.0467 7.435722,1.86275 8.691162,6.02298 16.161163,24.68554 14.026651,35.04328 l -0.623123,3.02372 -12.493864,0.44628 c -11.198877,0.40003 -13.00758,0.68556 -17.450124,2.75478 -5.523583,2.57275 -8.250166,6.50044 -7.257678,10.45483 0.605182,2.41124 8.046151,7.51014 10.959757,7.51014 0.958969,0 3.632723,0.9573 5.941676,2.12733 6.994369,3.54432 7.592882,5.6428 8.662913,30.37362 0.877332,20.2771 0.852746,20.9556 -0.913299,25.20518 -1.652152,3.97552 -2.252435,4.54351 -6.694045,6.33397 -2.683529,1.08175 -6.959632,3.05458 -9.502449,4.38406 -4.882631,2.55281 -11.445558,3.13062 -16.974681,1.49445 l 0,0 z"
     id="path3926"
     inkscape:connector-curvature="0" />
</svg>
