<?xml version="1.0" encoding="UTF-8" standalone="no"?>
<!-- Created with Inkscape (http://www.inkscape.org/) -->

<svg
   xmlns:dc="http://purl.org/dc/elements/1.1/"
   xmlns:cc="http://creativecommons.org/ns#"
   xmlns:rdf="http://www.w3.org/1999/02/22-rdf-syntax-ns#"
   xmlns:svg="http://www.w3.org/2000/svg"
   xmlns="http://www.w3.org/2000/svg"
   xmlns:sodipodi="http://sodipodi.sourceforge.net/DTD/sodipodi-0.dtd"
   xmlns:inkscape="http://www.inkscape.org/namespaces/inkscape"
   id="svg3438"
   version="1.1"
   inkscape:version="0.48.2 r9819"
   width="489"
   height="405"
   sodipodi:docname="guard_stamping.svg"
   inkscape:export-filename="/Users/nbeckman/Documents/MIA_ludem_dare/guard_stamping.png"
   inkscape:export-xdpi="27.791206"
   inkscape:export-ydpi="27.791206">
  <metadata
     id="metadata3444">
    <rdf:RDF>
      <cc:Work
         rdf:about="">
        <dc:format>image/svg+xml</dc:format>
        <dc:type
           rdf:resource="http://purl.org/dc/dcmitype/StillImage" />
        <dc:title></dc:title>
      </cc:Work>
    </rdf:RDF>
  </metadata>
  <defs
     id="defs3442" />
  <sodipodi:namedview
     pagecolor="#ffffff"
     bordercolor="#666666"
     borderopacity="1"
     objecttolerance="10"
     gridtolerance="10"
     guidetolerance="10"
     inkscape:pageopacity="0"
     inkscape:pageshadow="2"
     inkscape:window-width="1623"
     inkscape:window-height="897"
     id="namedview3440"
     showgrid="false"
     inkscape:zoom="1.1476306"
     inkscape:cx="244.5"
     inkscape:cy="202.5"
     inkscape:window-x="0"
     inkscape:window-y="0"
     inkscape:window-maximized="0"
     inkscape:current-layer="svg3438" />
  <path
     style="fill:#000000"
     d="m 340.03957,370.65639 c -0.42252,-1.2375 -0.83102,-2.475 -0.90778,-2.75 -0.2232,-0.79973 -3.40468,-7.35668 -4.36685,-9 -0.48305,-0.825 -1.39834,-2.625 -2.03399,-4 -2.4577,-5.31636 -4.2086,-8 -5.21947,-8 -0.57884,0 -0.80948,-0.63311 -0.51254,-1.40691 0.29693,-0.77381 -0.66742,-3.81131 -2.14302,-6.75 -1.47559,-2.9387 -2.836,-6.24309 -3.02314,-7.34309 -0.18714,-1.1 -0.97464,-2.71043 -1.75,-3.57874 -0.77536,-0.86831 -1.40975,-2.14259 -1.40975,-2.83174 0,-0.68914 -1.54759,-3.89356 -3.4391,-7.12092 -3.2705,-5.58027 -5.97668,-12.88615 -5.09846,-13.76437 0.65889,-0.65889 4.68532,2.48546 5.91062,4.61575 0.61982,1.07762 2.81444,4.73307 4.87694,8.12324 2.0625,3.39016 3.75,6.69363 3.75,7.34103 0,1.71619 4.36803,12.1571 5.25,12.54908 0.4125,0.18334 0.75,1.19584 0.75,2.25 0,1.05417 0.39152,1.91667 0.87004,1.91667 0.47852,0 1.44025,2.03659 2.13717,4.52576 0.69693,2.48917 1.63298,4.75187 2.08012,5.02821 0.44714,0.27635 2.22828,3.30226 3.95808,6.72424 1.7298,3.42199 3.77723,6.93222 4.54984,7.80053 2.48398,2.79164 1.42529,7.92126 -1.63485,7.92126 -1.00409,0 -2.17133,-1.0125 -2.59386,-2.25 z M 149.17302,348.80413 c -1.65,-0.53392 -4.4625,-0.75762 -6.25,-0.49712 -1.7875,0.2605 -3.25124,0.16443 -3.25275,-0.21349 -0.002,-0.37792 -4.74605,-0.8182 -10.54342,-0.97839 -5.79737,-0.16019 -11.67542,-0.72269 -13.06234,-1.25 -1.38693,-0.52731 -3.61739,-0.95874 -4.95659,-0.95874 -1.33919,0 -2.4349,-0.47656 -2.4349,-1.05902 0,-0.58246 -0.50031,-0.7498 -1.1118,-0.37188 -0.61149,0.37792 -1.4106,0.20367 -1.77579,-0.38722 -0.36519,-0.5909 -2.22738,-1.3397 -4.1382,-1.66401 -5.165919,-0.87677 -6.974209,-1.54708 -6.974209,-2.58526 0,-0.51293 -0.56675,-0.93261 -1.25945,-0.93261 -0.6927,0 -1.7969,-0.8606 -2.45379,-1.91244 -0.65688,-1.05184 -3.46513,-3.14836 -6.24055,-4.65893 -2.77541,-1.51057 -5.04621,-3.11341 -5.04621,-3.56188 0,-0.44846 -1.35,-1.5135 -3,-2.36675 -1.65,-0.85325 -3,-2.01619 -3,-2.58432 0,-0.56813 -1.29269,-2.69407 -2.87266,-4.72432 -2.82318,-3.62777 -4.87424,-7.24394 -6.91484,-12.19136 -1.90317,-4.61422 -2.35087,-6.47236 -2.89129,-12 -0.29575,-3.025 -0.89339,-6.175 -1.3281,-7 -0.4347,-0.825 -0.56129,-4.425 -0.28131,-8 0.27999,-3.575 0.57187,-11.37385 0.64863,-17.33077 0.11937,-9.26289 -0.11376,-11.01599 -1.61043,-12.11024 -2.24485,-1.64128 -2.20886,-2.83375 0.14996,-4.96845 1.81884,-1.64603 2.02086,-1.56092 4.7322,1.99384 2.45678,3.221 2.85328,4.67652 2.99088,10.97928 0.0872,3.99632 -0.39745,11.01685 -1.0771,15.60118 -0.70766,4.77321 -0.87468,9.05491 -0.39084,10.01942 0.4647,0.92634 0.8449,3.24826 0.8449,5.15982 0,1.91156 1.34302,7.58535 2.98448,12.60843 2.38109,7.28639 3.84688,10.02014 7.25,13.52146 2.34604,2.41373 5.76793,5.99642 7.6042,7.96153 1.83628,1.9651 3.73406,3.32856 4.2173,3.02991 0.48323,-0.29866 1.45158,0.37445 2.15186,1.49579 0.70029,1.12134 1.80787,2.0388 2.46128,2.0388 0.65342,0 1.81088,0.62285 2.57214,1.38412 4.32675,4.32674 19.969699,9.51561 22.458899,7.44976 1.19409,-0.991 1.71605,-0.46983 1.41827,1.41612 -0.12615,0.79893 -0.0354,0.81476 6.88157,1.20131 2.475,0.13831 8.55,0.62826 13.5,1.08879 16.23501,1.51042 27.5597,0.87422 35.5,-1.99431 2.475,-0.89413 5.33871,-1.81673 6.3638,-2.05023 2.14041,-0.48757 4.55773,-3.3314 4.6044,-5.41682 0.0175,-0.78169 0.7341,-2.19729 1.59246,-3.14577 2.60393,-2.87731 3.63574,-13.84931 2.025,-21.53348 -0.76839,-3.6657 -1.83658,-6.94269 -2.37374,-7.2822 -0.53717,-0.33951 -1.2344,-2.41729 -1.54941,-4.61729 -0.93203,-6.50921 -1.8986,-10.93312 -2.62186,-12 -0.37285,-0.55 -0.76216,-2.33013 -0.86512,-3.95583 -0.10296,-1.62571 -0.63457,-3.40321 -1.18136,-3.95 -0.5468,-0.5468 -1.00998,-2.36667 -1.0293,-4.04417 -0.0193,-1.6775 -0.72297,-5.975 -1.56367,-9.55 -0.84071,-3.575 -1.86398,-8.31645 -2.27395,-10.53657 -0.40997,-2.22011 -1.07769,-4.57422 -1.48382,-5.23136 -0.40613,-0.65713 -0.92505,-3.75761 -1.15315,-6.88994 -0.23509,-3.22834 -1.0648,-6.34522 -1.91556,-7.19598 -1.6464,-1.6464 -1.66487,-1.64024 -11.07472,3.6933 -5.63575,3.19436 -11.5,4.73085 -11.5,3.01311 0,-0.74379 -0.40283,-0.7757 -1.25,-0.099 -1.11601,0.8914 -13.06126,5.39351 -18.25,6.87834 -4.41374,1.26305 -8.86307,1.53163 -29.03393,1.7526 -11.568659,0.12673 -21.474739,0.50286 -22.013509,0.83583 -0.53876,0.33298 -2.94137,-0.73227 -5.33913,-2.36721 -2.39776,-1.63494 -4.97356,-2.737 -5.724,-2.44903 -0.75045,0.28797 -2.48141,-0.47263 -3.84659,-1.69024 -1.36517,-1.2176 -4.3242,-3.55901 -6.57562,-5.20314 -2.8256,-2.06343 -5.04951,-4.99248 -7.18011,-9.45675 -3.03643,-6.36228 -3.06852,-6.5901 -1.9736,-14.01069 2.37256,-16.07943 4.22217,-22.04327 6.83642,-22.04327 2.42263,0 2.71467,-4.69228 0.44374,-7.12983 -1.15151,-1.23601 -2.09367,-2.63713 -2.09367,-3.1136 0,-0.47646 -0.97466,-2.97911 -2.16591,-5.56143 -1.19126,-2.58233 -2.38007,-7.17014 -2.64182,-10.19514 -0.36095,-4.17147 -1.04699,-5.99205 -2.84016,-7.53705 -1.94933,-1.67956 -2.33618,-2.90805 -2.20432,-7 0.22572,-7.00495 -0.81312,-29.99945 -1.62473,-35.96295 -0.37426,-2.75 -0.2253,-6.8 0.33102,-9 5.7767,-22.844125 7.29569,-25.606255 18.14592,-32.996575 1.925,-1.31116 6.425,-4.38387 10,-6.82824 3.575,-2.44437 7.92695,-4.7492 9.67099,-5.12185 1.74404,-0.37265 4.35473,-1.77459 5.80152,-3.11544 1.4468,-1.34084 3.39485,-2.47233 4.32902,-2.51441 0.93416,-0.0421 2.37347,-0.24937 3.19847,-0.46064 7.420249,-1.90024 9.427129,-2.23617 10.621339,-1.77791 0.75827,0.29097 1.37866,0.12126 1.37866,-0.37715 0,-0.4984 1.575,-0.72231 3.5,-0.49758 1.925,0.22473 3.5,0.80937 3.5,1.2992 0,0.48983 1.76786,0.89059 3.92858,0.89059 2.22992,0 4.60471,0.67615 5.49232,1.56376 0.86007,0.86007 2.01206,1.2867 2.55997,0.94806 0.57544,-0.35564 0.74468,0.0398 0.40069,0.93624 -0.48586,1.26614 0.265,1.55194 4.07719,1.55194 2.57,0 5.65565,0.49926 6.85699,1.10947 2.4682,1.25369 8.68426,7.56959 8.68426,8.82374 0,0.45205 0.6833,1.389 1.51845,2.08211 0.83515,0.69311 2.27712,2.88571 3.20437,4.87244 0.92725,1.98673 2.49395,4.20026 3.48155,4.91895 0.9876,0.71868 1.80358,1.84368 1.8133,2.5 0.0156,1.0526 6.1803,4.36764 11.29571,6.0742 0.99736,0.33273 1.59977,0.95061 1.33868,1.37306 -0.60961,0.98636 1.84917,4.38329 2.98557,4.12473 1.51519,-0.34475 4.77473,1.43045 7.80757,4.25213 1.61986,1.507085 4.09486,3.331685 5.5,4.054665 1.40514,0.72298 3.9048,2.54993 5.5548,4.05989 1.65,1.50995 3.48406,2.74745 4.07569,2.75 0.59162,0.002 2.13256,1.12962 3.42431,2.50462 1.29175,1.375 3.0049,2.5 3.80702,2.5 0.80211,0 2.27875,0.94589 3.28142,2.10197 1.8726,2.15913 7.05627,5.49638 10.16156,6.54202 0.9625,0.3241 1.75,1.0102 1.75,1.52466 0,0.51446 1.35,1.406 3,1.98119 1.65,0.5752 3,1.45179 3,1.94799 0,0.49619 0.61312,0.90217 1.3625,0.90217 0.74937,0 3.06124,1.35 5.1375,3 2.07626,1.65 4.34,3 5.03053,3 0.69052,0 1.51452,0.675 1.83111,1.5 0.31658,0.825 1.23921,1.5 2.05028,1.5 0.81108,0 2.0627,0.81765 2.78139,1.817 0.71868,0.99936 4.19108,3.24936 7.71642,5 3.52535,1.75065 6.11725,3.183 5.75979,3.183 -0.35746,0 0.12067,0.9 1.06252,2 0.94185,1.1 2.2114,2 2.82123,2 0.60983,0 1.69935,1.10349 2.42116,2.4522 0.72181,1.34871 1.58535,2.37708 1.91898,2.28526 0.9903,-0.27254 9.1066,5.21203 9.1066,6.15376 0,0.47638 1.35,1.42533 3,2.10878 1.65,0.68345 3,1.63805 3,2.12132 0,0.48327 0.68912,0.87868 1.53138,0.87868 0.84227,0 1.79041,0.675 2.10699,1.5 0.31659,0.825 1.12715,1.5 1.80125,1.5 1.32227,0 7.56038,-7.27654 7.56038,-8.81892 0,-0.5149 0.65198,-1.47729 1.44885,-2.13863 0.79686,-0.66134 1.98433,-2.85394 2.6388,-4.87244 0.65448,-2.01851 2.0275,-4.86448 3.05116,-6.32438 1.02365,-1.4599 1.86119,-3.38246 1.86119,-4.27234 0,-0.88989 1.69915,-3.52042 3.77589,-5.84563 2.07673,-2.32521 4.54896,-5.80266 5.49383,-7.72766 2.02312,-4.12172 3.75467,-6.89652 5.47551,-8.77443 1.04196,-1.13706 1.93982,-0.98588 5.5,0.92605 2.34013,1.25673 4.92977,2.77907 5.75477,3.383 2.17376,1.59125 15.89078,5.90794 16.58081,5.21791 0.32126,-0.32126 2.9095,0.4986 5.75165,1.82191 2.84215,1.32331 6.09519,2.41042 7.22898,2.41579 3.34222,0.0158 6.71659,3.82619 6.09906,6.88706 -1.76125,8.72986 -6.76383,20.16048 -19.31022,44.12271 -2.17303,4.15023 -4.03878,9.22409 -4.17735,11.36017 -0.27139,4.18334 -1.53755,5.986 -4.96957,7.07529 -1.21185,0.38462 -2.23133,1.45649 -2.26551,2.38193 -0.2577,6.97665 -0.0288,14.32078 0.49815,15.98098 0.84271,2.65513 -3.23979,4.04952 -9.936,3.39368 -6.11777,-0.59919 -12.34446,-0.5372 -19.15722,0.19072 -4.16866,0.4454 -5.63654,0.174 -7.65773,-1.41587 -1.37528,-1.0818 -2.87953,-1.98009 -3.34278,-1.99621 -1.26661,-0.0441 -6.94515,-5.43498 -8.95324,-8.49971 -2.11197,-3.22328 -1.98844,-8.83673 0.31231,-14.19167 1.99383,-4.64058 2.71095,-16.61068 1.17386,-19.59397 -1.3164,-2.55497 -6.59122,-7.68534 -7.90173,-7.68534 -0.49671,0 -1.38477,-0.9 -1.97347,-2 -0.5887,-1.1 -1.79043,-2 -2.67051,-2 -0.88008,0 -2.65327,-1.0125 -3.94042,-2.25 -4.24724,-4.08341 -6.37654,-5.75 -7.34644,-5.75 -0.52655,0 -2.20341,-1.56162 -3.72635,-3.47026 -1.52294,-1.90864 -4.04373,-3.75024 -5.60174,-4.09244 -1.55801,-0.34219 -4.26922,-2.04308 -6.0249,-3.77974 -1.75568,-1.73666 -4.90385,-4.05756 -6.99592,-5.15756 -2.09207,-1.1 -4.75744,-3.0125 -5.92306,-4.25 -1.16562,-1.2375 -2.71586,-2.25 -3.44498,-2.25 -0.72913,0 -1.32569,-0.58891 -1.32569,-1.3087 0,-0.71978 -3.07921,-2.73535 -6.84269,-4.47905 -3.76348,-1.7437 -8.01697,-4.34464 -9.4522,-5.77987 -1.43523,-1.43522 -3.02741,-2.35122 -3.53818,-2.03555 -0.95073,0.58759 -5.90521,-3.01417 -13.15527,-9.56349 -1.01475,-0.91667 -2.03525,-1.47641 -2.26779,-1.24387 -0.23254,0.23254 -1.23978,-0.47996 -2.23832,-1.58334 -0.99854,-1.10337 -2.214,-2.00613 -2.70103,-2.00613 -0.91578,0 -6.22846,-3.55251 -8.59896,-5.75 -0.74163,-0.6875 -1.73413,-1.25 -2.20556,-1.25 -0.47143,0 -1.46393,-0.5625 -2.20556,-1.25 -2.86689,-2.65764 -7.77782,-5.750005 -9.1315,-5.750005 -0.77993,0 -2.00288,-0.70467 -2.71766,-1.56593 -1.24011,-1.49424 -6.17809,-4.43407 -7.44783,-4.43407 -0.33103,0 -0.50058,6.1875 -0.37677,13.750005 0.12381,7.5625 -0.19019,17.35 -0.69778,21.75 -1.48234,12.84943 -1.62152,12.63501 9.0771,13.98395 1.65,0.20804 3,0.44369 3,0.52366 0,0.08 0.9,0.35049 2,0.60115 4.60871,1.05017 7.0993,1.47732 8.73031,1.4973 0.95167,0.0117 1.99073,0.44257 2.30902,0.95757 0.31829,0.515 1.86214,0.93637 3.43079,0.93637 1.99012,0 3.67859,0.98224 5.58679,3.25 1.50408,1.7875 2.78158,3.10587 2.83889,2.9297 0.0573,-0.17616 1.2292,0.11181 2.6042,0.63995 1.95042,0.74915 8.78976,7.62754 13,13.07422 0.275,0.35576 1.70242,1.17455 3.17205,1.81953 3.43554,1.50776 6.82795,4.41621 6.82795,5.85385 0,1.08656 2.98536,4.28924 4,4.29119 2.05681,0.004 6.33442,2.58504 9.23659,5.5733 1.906,1.96254 4.17917,3.56826 5.05147,3.56826 0.87231,0 6.1355,2.29003 11.69598,5.08895 5.56048,2.79893 10.75114,4.84292 11.53479,4.5422 2.07645,-0.79681 7.67746,1.40046 9.68327,3.79872 0.95225,1.13857 1.74634,3.08263 1.76464,4.32013 0.0267,1.80692 0.6027,2.25 2.92486,2.25 2.26204,0 3.0303,0.55266 3.52869,2.53841 0.69524,2.77005 -1.65978,8.70109 -4.63712,11.67843 -0.98074,0.98074 -1.78316,2.30318 -1.78316,2.93877 0,0.63558 -1.14992,2.66323 -2.55538,4.50588 -1.40546,1.84266 -2.33172,3.71217 -2.05836,4.15447 0.27336,0.44231 -1.24355,3.02716 -3.37091,5.74412 -5.23413,6.68476 -8.35259,13.04231 -7.67271,15.64218 0.3658,1.39883 -0.28324,3.12687 -1.89299,5.03994 -1.34731,1.60119 -2.44276,3.43922 -2.43434,4.08453 0.0284,2.17762 1.73142,3.94783 3.0274,3.14688 0.77464,-0.47876 1.01678,-0.37888 0.62363,0.25724 -0.69698,1.12774 5.96934,3.79799 13.33366,5.34089 2.475,0.51853 4.95,1.50202 5.5,2.18553 0.55,0.6835 2.35,1.39684 4,1.5852 1.65,0.18835 3.71043,0.97585 4.57874,1.75 1.95136,1.73974 3.70131,1.79232 5.24269,0.15753 1.70667,-1.81011 11.71811,-22.00324 11.69668,-23.59227 -0.01,-0.73825 0.80345,-2.38672 1.80758,-3.66326 1.31795,-1.6755 1.76212,-3.73595 1.59711,-7.40873 -0.23923,-5.32458 0.38546,-6.28915 4.34655,-6.71147 2.56913,-0.27392 5.66078,2.25486 6.67901,5.46302 0.49575,1.56196 -0.39572,2.99476 -3.83673,6.16658 -2.54953,2.35007 -4.76579,5.42154 -5.1394,7.12258 -0.36128,1.6449 -2.35576,6.67686 -4.43217,11.18214 -2.07642,4.50527 -4.39472,9.65391 -5.15179,11.44141 -0.75707,1.7875 -1.71664,3.25 -2.13238,3.25 -0.41574,0 -0.75589,1.26 -0.75589,2.8 0,2.96029 -1.57057,5.2 -3.64642,5.2 -0.68554,0 -3.93376,-1.575 -7.21827,-3.5 -3.28451,-1.925 -6.68362,-3.5 -7.55357,-3.5 -0.86996,0 -1.58174,-0.45 -1.58174,-1 0,-0.55 -1.13111,-1 -2.51357,-1 -1.38246,0 -3.40746,-0.45 -4.5,-1 -1.09254,-0.55 -2.88032,-1.45 -3.97286,-2 -1.09254,-0.55 -2.86598,-1 -3.94098,-1 -1.07501,0 -2.23267,-0.45 -2.57259,-1 -0.33992,-0.55 -1.44333,-1 -2.45203,-1 -1.0087,0 -2.09301,-0.675 -2.4096,-1.5 -0.31658,-0.825 -1.62472,-1.5 -2.90699,-1.5 -4.63865,0 -6.01893,-4.00761 -3.22522,-9.36431 0.82161,-1.57537 1.49384,-3.93787 1.49384,-5.25 0,-1.31213 0.7875,-3.17687 1.75,-4.14387 0.9625,-0.967 2.62567,-3.7795 3.69593,-6.25 1.07026,-2.4705 2.75776,-5.68629 3.75,-7.14619 0.99224,-1.4599 1.80407,-3.13175 1.80407,-3.7152 0,-0.58346 1.35,-2.5984 3,-4.47765 1.65,-1.87924 3,-3.85656 3,-4.39403 0,-1.13863 5.79087,-12.30881 7.10692,-13.70875 0.4912,-0.5225 0.89308,-1.79032 0.89308,-2.81739 0,-1.42719 -0.483,-1.71409 -2.04896,-1.21707 -1.20057,0.38104 -3.04928,-0.005 -4.46482,-0.93261 -1.32872,-0.87061 -3.12081,-1.58293 -3.98242,-1.58293 -0.86161,0 -1.81469,-0.64659 -2.11794,-1.43686 -0.30326,-0.79027 -1.21433,-1.18246 -2.0246,-0.87153 -0.81027,0.31093 -2.36556,-0.39248 -3.4562,-1.56314 -1.12327,-1.20569 -3.21362,-2.12847 -4.82157,-2.12847 -1.56123,0 -3.3988,-0.675 -4.08349,-1.5 -0.68469,-0.825 -1.86479,-1.5 -2.62244,-1.5 -0.75766,0 -1.37756,-0.45 -1.37756,-1 0,-0.55 -0.81515,-1 -1.81144,-1 -0.99629,0 -2.77747,-0.9 -3.9582,-2 -1.18071,-1.1 -2.84056,-2 -3.68856,-2 -0.84799,0 -1.54181,-0.45 -1.54181,-1 0,-0.55 -0.71713,-1 -1.59362,-1 -0.87649,0 -1.80336,-0.80204 -2.05971,-1.78232 -0.25634,-0.98027 -1.87646,-2.40661 -3.60026,-3.16964 -3.49375,-1.54648 -7.6663,-5.82191 -7.71481,-7.90503 -0.0174,-0.74634 -0.62186,-1.13048 -1.34328,-0.85365 -0.72143,0.27684 -2.40893,-0.34001 -3.75,-1.37077 -1.34108,-1.03077 -3.00082,-1.88412 -3.68832,-1.89635 -0.6875,-0.0122 -1.25,-0.60465 -1.25,-1.31648 0,-0.71183 -1.8,-3.22457 -4,-5.58385 -2.2,-2.35929 -4,-4.75437 -4,-5.32239 0,-0.56803 -0.93555,-0.78813 -2.07899,-0.48911 -1.51806,0.39698 -1.93124,0.15864 -1.53138,-0.88337 0.34143,-0.88977 -0.0995,-1.43901 -1.17101,-1.45884 -2.13899,-0.0396 -5.41699,-2.4365 -4.53641,-3.31708 0.35812,-0.35811 -0.74732,-0.65112 -2.45653,-0.65112 -1.7092,0 -3.351,-0.39375 -3.64843,-0.875 -0.29742,-0.48125 -1.6635,-0.875 -3.03571,-0.875 -1.37221,0 -3.96792,-0.66256 -5.76824,-1.47236 -1.80031,-0.8098 -4.6233,-1.38635 -6.2733,-1.28122 -1.65,0.10512 -4.22785,0.26143 -5.72856,0.34736 -2.53468,0.14512 -2.64762,0.33386 -1.58949,2.65622 0.6265,1.375 1.74185,2.5 2.47857,2.5 0.73671,0 1.33948,0.35969 1.33948,0.79932 0,0.91595 13.51857,9.20068 15.01316,9.20068 0.54276,0 0.98684,0.675 0.98684,1.5 0,0.825 0.37839,1.5 0.84086,1.5 1.99113,0 9.15914,8.27762 9.15914,10.57698 0,1.33266 0.45,2.42302 1,2.42302 0.55,0 1,0.92235 1,2.04966 0,1.12731 0.61976,3.26481 1.37724,4.75 2.1528,4.22095 4.38692,15.44434 3.83237,19.25235 -0.68372,4.69499 -4.67021,10.87355 -11.30803,17.52605 -2.91379,2.92024 -3.01538,3.28559 -1.98138,7.12559 0.59944,2.22614 1.28672,5.34101 1.52729,6.92194 0.24057,1.58093 1.09118,4.89941 1.89024,7.37441 0.79907,2.475 1.94474,8.85485 2.54594,14.17745 0.6012,5.3226 1.49162,10.7226 1.9787,12 1.92324,5.0438 4.319,12.84223 4.61524,15.02302 0.64359,4.73789 2.79862,13.3699 3.81961,15.29953 0.58202,1.1 1.16176,2.9 1.28831,4 0.12655,1.1 0.70149,3.813 1.27764,6.02888 1.07004,4.11542 0.96448,7.64126 -0.31955,10.67323 -0.39647,0.93617 -0.43895,2.15823 -0.0944,2.71571 0.34454,0.55747 -0.29059,2.81109 -1.41139,5.00805 -1.1208,2.19695 -2.03782,4.85512 -2.03782,5.90704 0,2.41806 -6.61337,8.13976 -10.2486,8.86681 -1.51327,0.30265 -2.7514,0.97232 -2.7514,1.48814 0,0.51582 -0.7875,0.82333 -1.75,0.68335 -0.9625,-0.13997 -2.84341,0.11275 -4.17979,0.5616 -1.33638,0.44885 -5.38638,0.90039 -9,1.00342 -3.61362,0.10302 -7.69521,0.46743 -9.07021,0.8098 -1.375,0.34236 -3.85,0.18563 -5.5,-0.34829 z M 80.923021,240.69284 c 1.55322,1.28152 45.749999,1.37898 45.749999,0.10088 0,-0.48803 1.24987,-0.88733 2.77749,-0.88733 1.52763,0 3.75294,-0.68323 4.94515,-1.51828 1.19221,-0.83506 2.52984,-1.43862 2.97251,-1.34125 0.77102,0.16961 2.45617,-0.36046 6.80485,-2.14047 4.56257,-1.86756 6.06352,-2.3052 7.25,-2.11388 0.6875,0.11085 1.25,-0.31632 1.25,-0.94927 0,-0.63296 0.675,-0.89181 1.5,-0.57522 0.825,0.31658 1.5,0.13972 1.5,-0.39301 0,-0.53274 1.10182,-0.96862 2.44848,-0.96862 3.1258,0 7.55152,-4.06504 7.55152,-6.9361 0,-1.21372 -0.69748,-2.90423 -1.54995,-3.75671 -0.85247,-0.85247 -1.39653,-2.28283 -1.20901,-3.17857 0.4599,-2.19688 4.44724,-1.68638 8.18215,1.04757 2.65582,1.94406 3.15823,2.00785 5.49292,0.69742 1.41336,-0.7933 2.72141,-2.22992 2.90679,-3.1925 0.18537,-0.96258 1.48367,-2.89677 2.8851,-4.29821 2.41701,-2.417 2.51647,-2.93913 1.93375,-10.15176 -0.33788,-4.18204 -1.07049,-8.05988 -1.62803,-8.61742 -0.55755,-0.55755 -1.01372,-2.35079 -1.01372,-3.98498 0,-1.63419 -0.61341,-3.68169 -1.36314,-4.55 -0.74973,-0.86831 -2.14674,-3.67926 -3.10447,-6.24655 -1.24439,-3.33572 -2.42497,-4.8394 -4.13686,-5.26905 -1.31754,-0.33069 -2.39553,-1.04267 -2.39553,-1.58219 0,-0.53952 -0.46882,-0.98095 -1.04181,-0.98095 -0.573,0 -1.99115,-0.88444 -3.15145,-1.96542 -1.16029,-1.08098 -2.42601,-1.76989 -2.81269,-1.5309 -0.38668,0.23898 -2.19958,-0.90158 -4.02866,-2.53458 -3.96819,-3.54279 -6.49358,-3.78863 -7.38705,-0.7191 l -0.65493,2.25 -1.58368,-2.25 c -0.87102,-1.2375 -2.61629,-2.25 -3.87837,-2.25 -1.26208,0 -2.47044,-0.52723 -2.68523,-1.17162 -0.40583,-1.21748 -18.77623,-2.14227 -18.77603,-0.94521 6e-5,0.33926 -1.99397,0.5334 -4.43117,0.43144 -2.72153,-0.11386 -4.86756,0.34029 -5.56203,1.17708 -0.7447,0.89731 -2.30164,1.17246 -4.56036,0.80592 -2.01088,-0.32632 -4.02895,-0.0591 -4.87845,0.64588 -0.79686,0.66134 -2.26317,1.10044 -3.25846,0.97578 -0.99529,-0.12465 -2.709629,0.11684 -3.809629,0.53666 -4.42594,1.68918 -14.57071,6.84947 -15.07743,7.66936 -0.29733,0.48109 -1.45617,0.87471 -2.5752,0.87471 -1.1936,0 -2.25079,0.8267 -2.55762,2 -0.28765,1.1 -1.07458,2 -1.74873,2 -0.67414,0 -3.71844,2.8125 -6.76509,6.25 -13.19947,14.89278 -15.83999,20.08278 -16.42823,32.29011 -0.33752,7.0043 -0.12722,8.31942 1.63243,10.20819 1.11093,1.19244 2.01987,2.50771 2.01987,2.92282 0,1.96464 11.46646,11.37739 15.02801,12.33642 2.13815,0.57575 4.17161,1.50643 4.5188,2.06819 0.41861,0.67733 1.10654,0.62693 2.04222,-0.14962 0.97878,-0.81231 1.79386,-0.85509 2.66097,-0.13966 z M 303.96586,220.65639 c 1.48036,-0.6875 2.69508,-1.5875 2.69937,-2 0.004,-0.4125 0.86991,-1.61211 1.9236,-2.6658 1.05369,-1.05369 2.0382,-3.19119 2.1878,-4.75 0.31235,-3.25462 -1.8326,-10.3342 -3.13102,-10.3342 -0.47977,0 -2.87264,-1.35 -5.31747,-3 -5.20984,-3.51608 -7.17759,-3.73749 -8.88718,-1 -0.68696,1.1 -1.81013,2 -2.49593,2 -1.34197,0 -5.53379,6.09341 -6.68131,9.71224 -0.55098,1.73756 0.20217,3.1926 3.51009,6.78127 2.31638,2.51297 4.69201,4.40889 5.27919,4.21317 0.58718,-0.19573 2.2044,0.23742 3.59382,0.96256 3.13541,1.63638 3.95005,1.64537 7.31904,0.0808 z m 16.60221,-4.55388 c 0.55634,-1.03953 0.59921,-2.39641 0.10117,-3.20226 -0.47534,-0.7691 -0.62559,-1.78451 -0.33391,-2.25647 0.77216,-1.24938 -1.73404,-6.81109 -2.77836,-6.16566 -1.02279,0.63212 -1.21236,11.76652 -0.21727,12.7616 1.13022,1.13023 2.22039,0.74621 3.22837,-1.13721 z m 9.38694,-22.75082 c 1.22893,-1.22893 3.30179,-4.19437 4.60636,-6.58986 4.66537,-8.56667 11.11166,-21.64682 11.11166,-22.54663 0,-0.50387 1.1226,-3.16889 2.49467,-5.92228 1.37207,-2.75338 2.89214,-7.13365 3.37792,-9.73393 l 0.88324,-4.72778 -3.62791,-1.62969 c -1.99536,-0.89633 -4.93171,-1.77933 -6.52523,-1.96222 -1.59352,-0.18289 -3.39352,-0.74234 -4,-1.24323 -1.26406,-1.04398 -8.48585,-2.61087 -10.35269,-2.24619 -0.6875,0.1343 -1.25,-0.22554 -1.25,-0.79965 0,-0.57411 -1.0875,-1.04384 -2.41667,-1.04384 -1.32916,0 -2.56666,-0.39527 -2.75,-0.87838 -0.18333,-0.48311 -1.68333,-1.16393 -3.33333,-1.51292 -3.20632,-0.67818 -2.75611,-1.13838 -9.13974,9.34268 -1.17686,1.93224 -3.53936,4.89402 -5.25,6.58174 -1.71064,1.68771 -3.11026,3.55769 -3.11026,4.15551 0,0.59782 -1.48944,3.27494 -3.30986,5.94916 -1.82043,2.67421 -4.34188,7.4354 -5.60324,10.5804 -2.05971,5.13561 -2.1373,5.87426 -0.76156,7.25 0.84249,0.8425 2.40885,1.53181 3.48079,1.53181 1.07194,0 2.50918,0.675 3.19387,1.5 0.68469,0.825 2.48469,1.5 4,1.5 1.51531,0 3.33689,0.701 4.04795,1.55778 0.71106,0.85677 2.71853,2.15346 4.46104,2.88153 3.81674,1.59474 9.47996,7.40823 9.48638,9.73811 0.003,0.92258 1.19314,2.6123 2.64575,3.75493 l 2.64113,2.07751 1.38266,-2.66508 c 0.76046,-1.46579 2.38814,-3.67056 3.61707,-4.89948 z m -15.28198,3.61231 c 0,-0.93853 -4.1662,-2.22475 -4.88333,-1.50761 -0.25887,0.25886 0.39152,1.10111 1.4453,1.87166 1.89838,1.38813 3.43803,1.2251 3.43803,-0.36405 z m -6.17668,-3.70043 c -0.17782,-0.90355 -1.22332,-2.14105 -2.32332,-2.75 -1.1,-0.60895 -2.29035,-1.50745 -2.64523,-1.99667 -0.861,-1.18696 -6.85477,-1.61912 -6.85477,-0.49424 0,0.48605 0.92656,0.88373 2.05902,0.88373 1.13246,0 1.78905,0.43681 1.4591,0.97068 -0.32995,0.53388 0.52503,1.25303 1.89996,1.59812 1.37494,0.34508 3.02344,1.25828 3.66335,2.02931 1.58197,1.90616 3.13756,1.76947 2.74189,-0.24093 z m -15.82332,-8.35718 c 0,-0.55 -0.42344,-1 -0.94098,-1 -0.51754,0 -1.2191,0.45 -1.55902,1 -0.33992,0.55 0.0835,1 0.94098,1 0.85746,0 1.55902,-0.45 1.55902,-1 z m -224.325479,-11 c 0.518,0 2.26564,-1.78936 3.88365,-3.97636 1.618,-2.187 3.29213,-3.987 3.72028,-4 0.42814,-0.013 4.02814,-1.55089 8,-3.41753 3.97185,-1.86664 8.79654,-3.71861 10.72154,-4.11548 1.925,-0.39686 4.05677,-1.16996 4.73727,-1.71798 0.680499,-0.54802 1.944029,-0.72519 2.807849,-0.39371 0.86382,0.33148 3.23205,-0.22933 5.26273,-1.24623 2.03069,-1.0169 4.9411,-2.14921 6.46759,-2.51625 1.52649,-0.36703 3.55648,-1.44838 4.5111,-2.40299 0.95461,-0.95461 3.75566,-2.37141 6.22455,-3.14844 2.4689,-0.77704 4.83304,-1.70117 5.25364,-2.05364 0.4206,-0.35246 3.56907,-0.31019 6.9966,0.0939 3.42752,0.40414 6.4584,0.50881 6.73527,0.2326 1.12371,-1.12102 0.80787,-16.33807 -0.33942,-16.35325 -0.82964,-0.011 -0.84427,-0.22327 -0.0517,-0.75 0.89775,-0.59663 2.01488,-5.72028 2.55856,-11.73469 0.0497,-0.55 -0.22901,-6.4 -0.61941,-13 -1.53924,-26.022365 -5.52219,-36.101955 -14.54463,-36.807845 -4.68303,-0.3664 -10,-2.40887 -10,-3.84142 0,-0.45556 -1.0125,-0.75249 -2.25,-0.65985 -1.2375,0.0926 -3.96139,-0.40518 -6.0531,-1.10628 -2.09171,-0.70109 -4.90421,-0.99836 -6.25,-0.66058 -1.79152,0.44964 -2.4469,0.20726 -2.4469,-0.90493 0,-1.93847 -1.95344,-1.94038 -4.717149,-0.005 -1.18919,0.83295 -4.50245,1.95827 -7.36279,2.50072 -2.86034,0.54246 -5.79818,1.77346 -6.52854,2.73556 -0.73035,0.96211 -1.34222,1.35668 -1.35971,0.87684 -0.0175,-0.47985 -0.68709,-0.32861 -1.488,0.33609 -0.80091,0.66469 -1.88781,0.94178 -2.41533,0.61576 -0.52752,-0.32603 -2.29969,0.53523 -3.93816,1.91391 -1.63846,1.37866 -3.26122,2.50667 -3.60611,2.50667 -0.3449,0 -2.52994,1.22082 -4.85565,2.71293 -4.4155,2.83287 -13.14804,10.28707 -12.05122,10.28707 0.34795,0 -0.019,0.7875 -0.81548,1.75 -4.25898,5.14683 -7.17876,15.400425 -7.51098,26.376875 -0.48909,16.15907 2.63612,36.78591 5.69569,37.59235 0.94012,0.2478 1.97789,2.44141 2.64655,5.59421 0.605,2.85261 1.62366,6.98657 2.26369,9.18657 0.64003,2.2 1.38332,5.56359 1.65175,7.47464 0.26843,1.91105 1.22565,4.28966 2.12715,5.28581 1.57283,1.73796 1.72715,1.70868 3.81804,-0.72464 1.19842,-1.3947 2.60277,-2.53581 3.12078,-2.53581 z m -16.67453,-4.55902 c 0,-0.85746 -0.45734,-1.27636 -1.01631,-0.9309 -0.55897,0.34546 -0.75741,1.04702 -0.44098,1.55902 0.85724,1.38704 1.45729,1.12841 1.45729,-0.62812 z M 262.20057,338.95095 c -0.74815,-1.21053 0.32186,-34.12456 1.27744,-39.29456 0.69171,-3.74238 0.59338,-4.75 -0.46352,-4.75 -0.7378,0 -1.34146,-0.675 -1.34146,-1.5 0,-0.825 0.8449,-1.5 1.87756,-1.5 4.13154,0 4.58616,2.25618 4.81348,23.8883 0.11913,11.33643 0.0174,21.2867 -0.22609,22.1117 -0.45662,1.54723 -5.11973,2.3676 -5.93741,1.04456 z m -62.32755,-5.24456 c -3.24957,-3.24957 1.24619,-12.9964 7.65641,-16.59914 2.14217,-1.20397 5.70966,-4.2167 7.92774,-6.69495 2.21808,-2.47825 4.31859,-4.50591 4.66779,-4.50591 0.3492,0 3.05273,-2.39859 6.00785,-5.33019 2.95511,-2.9316 6.53558,-6.09198 7.95658,-7.02305 2.53098,-1.65836 2.58364,-1.6439 2.58364,0.7094 0,2.31269 -6.63136,9.50243 -21.59208,23.41017 -2.80063,2.60352 -6.3972,7.20867 -7.99237,10.23367 -3.74165,7.09548 -4.94932,8.06624 -7.21556,5.8 z M 379.67303,120.81845 c 0,-0.61932 -0.66059,-0.87255 -1.46797,-0.56272 -0.80739,0.30982 -1.73395,0.13297 -2.05902,-0.39301 -0.32508,-0.52598 0.31315,-0.95633 1.41828,-0.95633 1.10513,0 2.36919,-0.60516 2.80902,-1.34481 0.43983,-0.73965 3.04969,-2.16363 5.79969,-3.1644 2.75,-1.00077 6.43248,-2.8706 8.18328,-4.15518 1.7508,-1.28459 3.6258,-2.33561 4.16666,-2.33561 0.54087,0 1.13339,-0.3375 1.31673,-0.75 0.18333,-0.4125 1.68333,-1.55137 3.33333,-2.53083 2.91734,-1.73176 25.98941,-13.022275 29.99999,-14.680755 9.5871,-3.9645 12.12315,-4.73261 15.32689,-4.64214 2.55222,0.0721 3.67311,0.56146 3.67311,1.60372 0,1.06993 -1.14687,1.52307 -4,1.58046 -2.2,0.0442 -5.9737,1.04548 -8.38601,2.22496 -2.4123,1.17948 -4.7437,1.92343 -5.1809,1.65323 -0.43719,-0.2702 -1.077,-0.0348 -1.42181,0.5231 -0.57783,0.93495 -8.67005,4.968 -12.76127,6.36004 -0.9625,0.3275 -1.75,1.059575 -1.75,1.626835 0,0.56726 -0.66824,1.03138 -1.48498,1.03138 -1.85198,0 -8.48726,3.79074 -21.45828,12.25913 -3.54379,2.31364 -7.04627,4.21432 -7.78328,4.22374 -0.73701,0.009 -1.66254,0.51035 -2.05674,1.11316 -1.04991,1.60554 -6.21672,2.69932 -6.21672,1.31603 z m -81.42905,-4.1272 c -0.21617,-0.70667 -0.89608,-3.53486 -1.51092,-6.28486 -0.61485,-2.75 -1.97034,-6.8 -3.0122,-9 -3.6398,-7.685755 -6.94104,-21.093945 -8.12497,-33.000005 -0.6563,-6.6 -1.64333,-12.2892 -2.19341,-12.64266 -1.61337,-1.03671 0.0897,-5.66515 2.34823,-6.38199 1.14017,-0.36188 2.30578,-0.42522 2.59024,-0.14076 0.55296,0.55296 1.46569,13.66945 1.38907,19.96178 -0.0254,2.08801 0.43001,5.68801 1.01208,8 0.58207,2.312 1.4767,6.22863 1.98808,8.70363 0.84725,4.10063 2.67478,8.73756 3.94126,10 0.5893,0.58743 3.65799,8.714555 5.54301,14.680115 1.26851,4.01448 1.2238,4.2437 -1.12829,5.78486 -1.89878,1.24413 -2.53747,1.31601 -2.84218,0.31989 z m 43.24743,-18.299825 c -1.28545,-1.28544 1.40391,-11.12064 4.84524,-17.71943 2.084,-3.99608 4.13723,-7.41561 4.56273,-7.59894 0.42551,-0.18333 0.77365,-0.88803 0.77365,-1.566 0,-0.67797 1.4625,-2.58978 3.25,-4.24847 1.7875,-1.65869 4.52564,-4.44149 6.08477,-6.184 1.55912,-1.74251 3.47162,-3.1682 4.25,-3.1682 2.45401,0 1.53429,3.81548 -1.33477,5.53725 -2.39407,1.43673 -6.50363,6.22932 -9.75,11.3705 -0.55,0.87102 -1.72059,2.7106 -2.6013,4.08796 -0.88072,1.37736 -2.4207,4.75429 -3.4222,7.50429 -1.00149,2.75 -2.13135,5.45 -2.51081,6 -0.37945,0.55 -0.98554,2.2375 -1.34685,3.75 -0.61927,2.59229 -1.63365,3.40186 -2.80046,2.23504 z"
     id="path3448"
     inkscape:connector-curvature="0" />
  <path
     style="fill:none;stroke:#000000;stroke-width:1px;stroke-linecap:butt;stroke-linejoin:miter;stroke-opacity:1"
     d="m 60.195677,246.98635 c 0,-1.00326 -1.003261,-3.00979 0,-3.00979 1.003261,0 0,4.01305 0,3.00979 0,-12.72531 0.673008,-0.31775 -0.752446,-6.01957 -0.121663,-0.48665 0.158629,-1.029 0,-1.50489 -0.112168,-0.33651 -0.593817,-0.43519 -0.752446,-0.75245 -0.114497,-0.22899 0,-1.91847 0,-2.25734 0,-0.49443 0.14151,-1.8328 0,-2.25733 -0.177353,-0.53206 -0.575093,-0.97284 -0.752446,-1.5049 -0.237944,-0.71383 0.237944,-1.5435 0,-2.25733 -0.112168,-0.33651 -0.501631,-0.50163 -0.752446,-0.75245"
     id="path3452"
     inkscape:connector-curvature="0" />
  <path
     style="fill:none;stroke:#000000;stroke-width:1px;stroke-linecap:butt;stroke-linejoin:miter;stroke-opacity:1"
     d="m 304.74061,237.957 c 1.00327,-1.00326 2.00653,-2.00653 3.00979,-3.00979 0.25081,-0.25081 0.50163,-0.50163 0.75244,-0.75244 0.25082,-0.25082 0.43519,-0.59382 0.75245,-0.75245 0.22434,-0.11217 0.57509,0.17735 0.75245,0 0.17735,-0.17735 -0.2087,-0.61332 0,-0.75245 0.65993,-0.43995 1.57722,-0.34437 2.25733,-0.75244 0.60832,-0.36499 0.91463,-1.11138 1.5049,-1.50489 0.20869,-0.13913 0.52811,0.11217 0.75244,0 0.63452,-0.31726 0.87038,-1.18764 1.50489,-1.50489 0.22434,-0.11217 0.5751,0.17735 0.75245,0 0.17735,-0.17736 -0.25082,-0.75245 0,-0.75245 0.25081,0 -0.25082,0.75245 0,0.75245 0.35471,0 0.50163,-0.50164 0.75245,-0.75245 0.56515,-0.56515 1.50489,-1.66466 1.50489,-0.75245 0,0.25082 -0.50163,0 -0.75245,0"
     id="path3454"
     inkscape:connector-curvature="0" />
  <path
     style="fill:none;stroke:#000000;stroke-width:1px;stroke-linecap:butt;stroke-linejoin:miter;stroke-opacity:1"
     d="m 300.97838,238.70944 c -1.53046,-1.38801 -3.60151,0.55521 -5.26712,0 -0.3365,-0.11217 -0.45731,-0.55569 -0.75244,-0.75244 -0.9333,-0.6222 -2.07649,-0.8827 -3.00979,-1.5049 -0.29513,-0.19675 -0.41594,-0.64027 -0.75244,-0.75244 -0.6772,-0.22573 -1.58014,0.22573 -2.25734,0 -5.45028,-1.81676 1.18631,0.21693 -2.25734,-1.50489 -0.22433,-0.11217 -0.52811,0.11216 -0.75244,0 -0.31726,-0.15863 -0.45732,-0.55569 -0.75245,-0.75245 -0.46665,-0.3111 -1.10832,-0.35587 -1.50489,-0.75245 -0.17736,-0.17735 0.22433,-0.64027 0,-0.75244 -0.44867,-0.22434 -1.05622,0.22434 -1.50489,0 -0.95178,-0.47589 -1.30557,-1.78145 -2.25734,-2.25734 -0.22434,-0.11217 -0.5751,0.17735 -0.75245,0 -0.17735,-0.17735 0.17735,-0.57509 0,-0.75244 -0.3547,-0.35471 -1.029,0.15862 -1.50489,0 -0.53206,-0.17736 -1.10832,-0.35588 -1.50489,-0.75245 -0.17736,-0.17735 0.17735,-0.57509 0,-0.75245 -0.17736,-0.17735 -0.5751,0.17736 -0.75245,0 -0.3547,-0.3547 0.22434,-1.05622 0,-1.50489 -0.15863,-0.31726 -0.55569,-0.45731 -0.75244,-0.75244 -0.3111,-0.46665 -0.41595,-1.05622 -0.75245,-1.5049 -0.42565,-0.56753 -1.07924,-0.93736 -1.50489,-1.50489 -0.87175,-1.16233 -1.42201,-3.26167 -2.25734,-4.51467 -0.39351,-0.59027 -1.18763,-0.87038 -1.50489,-1.5049 -0.11217,-0.22433 0,-0.50163 0,-0.75244 0,-0.25082 -0.25082,-0.75245 0,-0.75245 0.25081,0 0,1.00326 0,0.75245 0,-0.50163 0,-1.00326 0,-1.50489 0,-0.25082 -0.25082,-0.75245 0,-0.75245 0.25081,0 0.25081,0.75245 0,0.75245 -0.25082,0 0,-0.50163 0,-0.75245"
     id="path3456"
     inkscape:connector-curvature="0" />
  <path
     style="fill:#000080;fill-opacity:1;stroke:#ffffff;stroke-width:1.73062563;stroke-miterlimit:4;stroke-opacity:1;stroke-dasharray:none"
     d="m 61.242424,176.08539 c -0.421923,-0.78837 -1.962959,-6.43164 -3.424524,-12.54059 -1.868121,-7.80825 -3.295567,-12.07066 -4.806061,-14.35109 -3.568436,-5.38735 -4.970081,-14.4812 -4.970241,-32.24682 -1.29e-4,-14.18469 0.110743,-15.37368 1.930634,-20.704063 2.840759,-8.320466 6.468293,-13.478996 13.055052,-18.564921 7.491703,-5.784671 15.266091,-10.456716 18.368134,-11.038391 1.379825,-0.258737 3.411429,-1.095408 4.514675,-1.85927 1.103247,-0.763861 3.698906,-1.833943 5.768132,-2.377961 2.069227,-0.544017 5.095582,-1.614808 6.725234,-2.379537 3.525071,-1.654169 4.937681,-1.757976 4.937681,-0.36285 0,0.719124 1.52455,1.172971 5.07901,1.511982 8.40038,0.801198 11.01723,1.359178 12.75611,2.719931 0.91165,0.713403 3.28185,1.704158 5.26712,2.201679 1.98528,0.497519 4.87044,1.23412 6.41149,1.636891 3.45817,0.903835 6.06773,4.157537 8.12107,10.125667 3.60758,10.485619 5.44695,42.044093 2.79767,48.000153 -0.92281,2.07463 -1.07594,3.28107 -0.54288,4.2771 0.80851,1.51072 1.0239,11.91656 0.28643,13.83836 -0.38627,1.00662 -1.41247,1.11494 -6.70707,0.70798 -5.67556,-0.43626 -6.72142,-0.29218 -11.36104,1.56519 -2.81053,1.12513 -5.99434,2.67537 -7.07515,3.44497 -2.78302,1.98168 -13.19027,6.00806 -15.52943,6.00806 -2.20524,0 -14.322941,4.21438 -21.925354,7.62535 -3.765753,1.68958 -6.483701,3.72868 -10.958185,8.22122 -3.272687,3.2859 -6.400572,5.97436 -6.950857,5.97436 -0.550284,0 -1.345726,-0.64503 -1.76765,-1.4334 z"
     id="path3458"
     inkscape:connector-curvature="0" />
  <path
     style="fill:#000080;fill-opacity:1;stroke:#ffffff;stroke-width:1.73062563;stroke-miterlimit:4;stroke-opacity:1;stroke-dasharray:none"
     d="m 130.42919,340.42955 c -6.00075,-0.55124 -10.99511,-1.03209 -11.09858,-1.06856 -0.10346,-0.0365 -0.18811,-0.58956 -0.18811,-1.22908 0,-0.92566 -0.54768,-1.06002 -2.68581,-0.6589 -3.53024,0.66227 -14.21629,-2.76889 -19.319981,-6.20342 -2.050727,-1.38004 -3.974146,-2.50916 -4.274265,-2.50916 -0.300119,0 -1.340919,-0.8465 -2.312888,-1.88111 -0.971968,-1.03462 -2.153717,-1.88112 -2.626107,-1.88112 -1.434007,0 -14.370122,-13.70718 -16.033555,-16.98924 -1.965649,-3.87836 -5.049212,-14.82603 -6.195551,-21.99625 -0.677855,-4.2399 -0.669364,-7.51864 0.03702,-14.29647 0.50413,-4.83716 0.792196,-11.73025 0.640148,-15.31799 -0.251008,-5.92278 -0.501526,-6.84241 -2.721902,-9.99191 -3.194453,-4.53117 -3.309378,-6.39973 -0.260067,-4.22843 1.20196,0.85587 2.782935,1.55613 3.513278,1.55613 0.730343,0 3.147666,1.02701 5.371831,2.28225 l 4.043936,2.28226 24.986083,-0.70297 c 27.42428,-0.77156 27.8608,-0.84009 41.20889,-6.46961 3.28589,-1.38581 5.97434,-2.17473 5.97434,-1.75317 0,1.52741 5.74053,-0.23728 13.40584,-4.12108 7.60851,-3.85501 7.78456,-3.90318 8.87392,-2.42815 0.61128,0.82769 1.2382,2.1821 1.39317,3.00979 1.41695,7.56818 2.92679,14.91185 4.5475,22.11849 1.06057,4.71595 2.23223,10.47216 2.60369,12.79158 0.37144,2.31941 1.51822,7.28314 2.54838,11.0305 1.03016,3.74737 2.25051,8.89517 2.7119,11.43956 0.46138,2.54439 1.50177,6.12472 2.31196,7.95628 0.81019,1.83157 1.82662,5.87208 2.25874,8.97892 1.0382,7.46433 0.002,13.73731 -3.41355,20.67101 l -2.66294,5.40539 -7.3194,2.39785 c -6.9773,2.28577 -7.95241,2.40745 -20.86342,2.60335 -7.44922,0.11303 -18.45374,-0.2455 -24.4545,-0.79674 l 0,0 z"
     id="path3460"
     inkscape:connector-curvature="0" />
  <path
     style="fill:#deaa87;fill-opacity:1;stroke:#ffffff;stroke-width:1.73062563;stroke-miterlimit:4;stroke-opacity:1;stroke-dasharray:none"
     d="m 85.295899,240.75299 c -3.51028,-0.32995 -6.762609,-0.45399 -7.227398,-0.27563 -1.545018,0.59288 -9.406285,-3.4386 -14.302821,-7.33489 -2.656856,-2.11413 -6.060046,-5.69603 -7.562643,-7.95979 l -2.731996,-4.11593 0.387881,-8.18347 c 0.450366,-9.50178 2.226284,-14.18497 8.552938,-22.55453 4.994317,-6.60701 16.804715,-18.47472 19.114455,-19.2072 1.031252,-0.32704 3.10192,-1.36886 4.601483,-2.31516 4.271968,-2.69581 12.722603,-6.33652 14.708022,-6.33652 0.99066,0 3.04474,-0.51958 4.56462,-1.15462 1.56531,-0.65403 3.65151,-0.95957 4.81181,-0.70472 1.25836,0.27638 3.00265,-0.0436 4.52255,-0.82953 2.0162,-1.04262 4.80377,-1.29518 15.06025,-1.36451 9.15966,-0.0619 12.84379,0.17099 13.53263,0.85549 0.52059,0.51731 1.58205,0.94056 2.3588,0.94056 0.77676,0 2.42809,1.0158 3.66963,2.25733 1.24153,1.24154 2.36388,2.25734 2.49411,2.25734 0.13021,0 0.43985,-0.80915 0.68806,-1.79812 0.67639,-2.69495 2.29602,-2.85993 5.49081,-0.5593 1.58079,1.13835 4.99042,3.22842 7.57695,4.6446 2.58653,1.41617 4.70279,2.82661 4.70279,3.1343 0,0.3077 1.01597,1.08482 2.2577,1.72695 4.83764,2.50164 11.28633,20.33004 11.28633,31.2028 0,2.92194 -0.35715,5.42256 -0.81489,5.70545 -0.44819,0.27699 -1.96663,2.3041 -3.37432,4.50467 -1.40769,2.20057 -3.21862,4.21026 -4.02428,4.46597 -0.88581,0.28114 -2.95648,-0.31502 -5.23825,-1.50813 -2.07536,-1.08518 -4.5535,-1.86246 -5.50696,-1.72729 -2.16057,0.30629 -2.67531,2.94621 -1.03194,5.29246 0.64872,0.92616 1.17949,2.42002 1.17949,3.31968 0,2.10318 -4.75214,6.30632 -7.13002,6.30632 -0.99578,0 -2.01979,0.3386 -2.27556,0.75244 -0.25577,0.41385 -1.12226,0.75245 -1.92552,0.75245 -0.80327,0 -1.46048,0.3386 -1.46048,0.75244 0,0.41385 -0.59256,0.75945 -1.31679,0.76802 -1.36228,0.0161 -15.06645,4.59228 -16.61091,5.54681 -0.48016,0.29675 -2.65302,1.04976 -4.82858,1.67335 -4.64412,1.33117 -33.887435,2.03907 -44.197951,1.06991 z"
     id="path3462"
     inkscape:connector-curvature="0" />
  <path
     style="fill:#deaa87;fill-opacity:1;stroke:#ffffff;stroke-width:1.73062563;stroke-miterlimit:4;stroke-opacity:1;stroke-dasharray:none"
     d="m 293.87989,236.22832 c -1.355,-0.838 -2.93592,-1.52363 -3.51314,-1.52363 -1.32889,0 -5.67504,-2.44634 -5.68138,-3.1979 -0.002,-0.31038 -0.46018,-0.56433 -1.0168,-0.56433 -0.55663,0 -1.62491,-0.6772 -2.37396,-1.50489 -0.74905,-0.8277 -1.90198,-1.52087 -2.56207,-1.5404 -0.66009,-0.0195 -2.60992,-2.24919 -4.33296,-4.95481 -3.07814,-4.83348 -3.11353,-4.96543 -2.02821,-7.56294 0.60751,-1.454 1.00147,-3.86928 0.87545,-5.36729 -0.20783,-2.47061 -0.49454,-2.78602 -3.08623,-3.39514 -2.30258,-0.54118 -2.93948,-1.08338 -3.28152,-2.7936 -0.80979,-4.04888 -4.87196,-6.95133 -10.81434,-7.72691 -1.87493,-0.2447 -7.86797,-2.49318 -13.31788,-4.99662 -5.44991,-2.50344 -10.25334,-4.55171 -10.6743,-4.55171 -0.42095,0 -2.53397,-1.57078 -4.6956,-3.49061 -2.16163,-1.91983 -5.7141,-4.27951 -7.89439,-5.24374 -2.51505,-1.11228 -4.36208,-2.51809 -5.05274,-3.84575 -1.35411,-2.60301 -3.86588,-4.9225 -7.10304,-6.55928 -1.36701,-0.69118 -3.06001,-1.86947 -3.76223,-2.61841 -7.67969,-8.19062 -11.42148,-11.70835 -13.3159,-12.51853 -1.24154,-0.53096 -3.2395,-1.99604 -4.43991,-3.25572 -2.57455,-2.70167 -7.71227,-4.44885 -20.01459,-6.80636 -13.07469,-2.50552 -14.22163,-2.88174 -14.70938,-4.82509 -0.23513,-0.93685 -0.0726,-5.7493 0.36116,-10.69434 0.43377,-4.94504 0.79216,-14.66254 0.79643,-21.59445 0.004,-6.931908 0.29556,-12.603469 0.64732,-12.603469 0.35175,0 2.1294,1.091669 3.95034,2.425931 1.82093,1.334262 4.83449,3.189663 6.69679,4.123113 1.86231,0.93345 5.07901,2.883895 7.14824,4.334325 5.15317,3.61212 9.64317,6.62701 15.42514,10.3575 2.69,1.73556 7.52521,5.28489 10.74492,7.88738 3.21971,2.6025 6.23329,4.73182 6.69685,4.73182 0.46356,0 3.41616,1.64661 6.56134,3.65913 3.14518,2.01252 7.13527,4.37824 8.86687,5.25714 1.7316,0.87891 4.00818,2.36436 5.05907,3.301 1.05089,0.93664 3.69733,2.97873 5.88099,4.53799 2.18365,1.55925 6.67909,4.81436 9.98985,7.23358 3.31076,2.41922 7.20467,4.99728 8.65313,5.72902 1.44846,0.73174 4.1961,2.72494 6.10588,4.42933 6.62355,5.91121 11.58904,9.71476 14.02205,10.74087 1.34499,0.56724 2.44545,1.34913 2.44545,1.73754 0,0.38841 1.52153,1.75304 3.38119,3.03252 1.85965,1.27948 4.22986,3.57525 5.26712,5.10171 1.63224,2.40205 1.88593,3.60161 1.88593,8.91726 0,4.15188 -0.51946,7.81316 -1.60324,11.30013 -3.68235,11.8476 -1.20674,17.7735 10.47046,25.06332 l 3.97633,2.48234 10.50826,-0.54142 c 5.77954,-0.29777 10.50826,-0.36819 10.50826,-0.15648 0,0.21171 -1.26975,1.14292 -2.82167,2.06936 -1.55192,0.92644 -3.83748,2.613 -5.07901,3.74793 -1.39079,1.27135 -3.41275,2.20418 -5.26713,2.42998 -1.65538,0.20156 -3.68698,0.58265 -4.51467,0.84685 -0.91822,0.29312 -2.46533,-0.11359 -3.96853,-1.04325 z"
     id="path3464"
     inkscape:connector-curvature="0" />
  <path
     style="fill:#552200;fill-opacity:1;stroke:#ffffff;stroke-width:1.73062563;stroke-miterlimit:4;stroke-opacity:1;stroke-dasharray:none"
     d="m 322.51899,198.39917 c -0.85313,-0.93115 -2.23554,-3.04741 -3.07204,-4.70279 -0.83649,-1.65538 -2.48305,-3.88098 -3.65903,-4.94577 -2.92599,-2.64936 -12.46458,-8.22203 -14.07343,-8.22203 -0.72082,0 -2.56277,-0.64643 -4.09322,-1.4365 -1.53045,-0.79007 -3.71379,-1.86309 -4.85186,-2.38449 -1.29626,-0.59386 -2.06648,-1.53292 -2.06188,-2.51384 0.0154,-3.27559 9.7919,-21.48412 13.97085,-26.02035 1.33438,-1.44846 3.98562,-5.06638 5.89166,-8.03982 1.90604,-2.97345 3.96532,-5.90606 4.57618,-6.51692 1.20424,-1.20425 3.57074,-0.90743 6.00734,0.75346 0.81631,0.55644 2.09066,1.0117 2.83188,1.0117 0.74122,0 1.93563,0.31263 2.65425,0.69474 0.71861,0.38211 3.33817,1.20268 5.82124,1.82348 14.77781,3.69466 19.18967,5.42311 19.17923,7.51392 -0.0329,6.59676 -14.36165,37.5073 -22.15543,47.79473 -2.29462,3.02879 -4.17203,5.81663 -4.17203,6.19519 0,1.18176 -1.1789,0.75778 -2.79371,-1.00471 z"
     id="path3466"
     inkscape:connector-curvature="0" />
  <path
     style="fill:#552200;fill-opacity:1;stroke:#ffffff;stroke-width:1.73062563;stroke-miterlimit:4;stroke-opacity:1;stroke-dasharray:none"
     d="m 278.25993,277.30403 c -0.81862,-0.57339 -2.67162,-1.39024 -4.11776,-1.81523 -1.44615,-0.42499 -4.32236,-1.46422 -6.39159,-2.3094 -2.06923,-0.84518 -6.23108,-2.24323 -9.24857,-3.10677 -3.01749,-0.86355 -6.14954,-2.23329 -6.96012,-3.04387 -0.81059,-0.81058 -1.8439,-1.38914 -2.29626,-1.28568 -0.45235,0.10346 -1.18887,-0.36701 -1.63669,-1.0455 -0.63943,-0.96878 -0.30132,-2.03293 1.57491,-4.95678 1.41141,-2.19949 2.38914,-4.70924 2.38914,-6.1327 0,-2.87108 2.0393,-7.11028 6.37885,-13.26007 1.75215,-2.48307 3.91115,-6.03838 4.79776,-7.90068 2.01303,-4.22831 4.64872,-8.96643 6.13856,-11.03515 1.10514,-1.53454 1.22317,-1.4428 4.13845,3.21675 1.65048,2.63798 3.54095,4.7991 4.20104,4.80248 0.66008,0.003 1.81302,0.68334 2.56207,1.51103 0.74904,0.82769 1.81733,1.50489 2.37395,1.50489 0.55663,0 1.01419,0.25395 1.01681,0.56433 0.006,0.69593 4.30859,3.1979 5.49953,3.1979 0.47721,0 2.64987,0.93115 4.82813,2.06923 3.95196,2.06477 3.96048,2.0771 3.96227,5.729 10e-4,2.19709 -0.58532,4.75327 -1.4672,6.39579 -0.80795,1.50481 -2.51964,5.27552 -3.80378,8.37936 -2.68056,6.47912 -7.84264,16.31128 -9.57993,18.24681 -1.42644,1.58922 -2.39519,1.65016 -4.35957,0.27426 z"
     id="path3468"
     inkscape:connector-curvature="0" />
  <path
     style="fill:#552200;fill-opacity:1;stroke:#ffffff;stroke-width:1.73062563;stroke-miterlimit:4;stroke-opacity:1;stroke-dasharray:none"
     d="m 294.83863,219.61508 c -4.13347,-1.54072 -10.15802,-7.4897 -10.15802,-10.03062 0,-2.4624 3.41987,-7.46314 7.39759,-10.8172 2.08058,-1.75437 4.17095,-3.18976 4.64526,-3.18976 0.47432,0 3.2251,1.37989 6.11285,3.06643 5.5649,3.25008 6.54746,4.64467 7.23132,10.26374 0.32271,2.65164 -1.4e-4,3.774 -1.96756,6.83995 -3.59643,5.60455 -6.40427,6.42341 -13.26144,3.86746 z"
     id="path3470"
     inkscape:connector-curvature="0" />
  <path
     style="fill:#552200;fill-opacity:1;stroke:#ffffff;stroke-width:0.75034118;stroke-miterlimit:4;stroke-opacity:1;stroke-dasharray:none"
     d="m 317.7072,217.11534 c -0.5048,-0.50481 -0.66853,-1.15083 -0.72345,-2.85456 -0.11305,-3.50762 0.12034,-7.99929 0.46184,-8.8881 l 0.31406,-0.8174 0.78816,0.97871 c 1.04165,1.29349 1.87203,3.84616 1.62177,4.98555 -0.10979,0.49988 0.0167,1.52165 0.28115,2.2712 0.56274,1.59497 0.27869,3.02806 -0.83519,4.21372 -0.87418,0.93053 -1.07691,0.9423 -1.90834,0.11088 z"
     id="path3472"
     inkscape:connector-curvature="0" />
  <path
     style="fill:#552200;fill-opacity:1;stroke:#ffffff;stroke-width:0.75034118;stroke-miterlimit:4;stroke-opacity:1;stroke-dasharray:none"
     d="m 305.85367,193.38172 c -0.81678,-0.67286 -2.37423,-1.56568 -3.461,-1.98404 -1.65671,-0.63778 -1.97594,-0.88713 -1.97594,-1.54341 0,-0.57227 -0.21929,-0.82826 -0.81559,-0.95207 l -1.63117,-0.33866 c -1.0926,-0.22685 -1.03911,-0.79515 0.0816,-0.86648 1.44315,-0.0918 3.38977,0.0907 4.18294,0.39225 0.93796,0.35662 4.69332,3.15041 5.43374,4.04244 0.68714,0.82782 0.76986,2.47336 0.12434,2.47336 -0.24961,0 -1.12211,-0.55053 -1.93888,-1.22339 z"
     id="path3474"
     inkscape:connector-curvature="0" />
  <path
     style="fill:#552200;fill-opacity:1;stroke:#ffffff;stroke-width:0.75034118;stroke-miterlimit:4;stroke-opacity:1;stroke-dasharray:none"
     d="m 312.92836,197.94587 c -0.3855,-0.0633 -1.26633,-0.61456 -1.95741,-1.225 l -1.25651,-1.1099 1.21231,-0.0136 c 1.36901,-0.0153 3.5181,0.88567 3.5181,1.47496 0,0.58434 -0.7271,1.00316 -1.51649,0.87352 z"
     id="path3476"
     inkscape:connector-curvature="0" />
</svg>
